<?xml version="1.0" standalone="no"?>
<!DOCTYPE svg PUBLIC "-//W3C//DTD SVG 1.1//EN" "http://www.w3.org/Graphics/SVG/1.1/DTD/svg11.dtd" >
<svg xmlns="http://www.w3.org/2000/svg" xmlns:xlink="http://www.w3.org/1999/xlink" version="1.1">
<metadata>
Created by FontForge 20170731 at Tue Nov 29 08:18:50 2022
 By Aleksey,,,
Copyright (c) 2022 by Khurasan. All rights reserved.
</metadata>
<defs>
<font id="Thesignature" horiz-adv-x="618" >
  <font-face 
    font-family="Thesignature"
    font-weight="400"
    font-stretch="normal"
    units-per-em="2048"
    panose-1="0 0 0 0 0 0 0 0 0 0"
    ascent="1638"
    descent="-410"
    x-height="878"
    cap-height="1536"
    bbox="-698.455 -378.229 2932.5 1691.6"
    underline-thickness="102"
    underline-position="-307"
    unicode-range="U+000D-20AC"
  />
<missing-glyph horiz-adv-x="823" 
 />
    <glyph glyph-name=".notdef" horiz-adv-x="823" 
 />
    <glyph glyph-name=".null" horiz-adv-x="0" 
 />
    <glyph glyph-name="nonmarkingreturn" horiz-adv-x="682" 
 />
    <glyph glyph-name="NULL" horiz-adv-x="0" 
 />
    <glyph glyph-name="NULL" horiz-adv-x="0" 
 />
    <glyph glyph-name="CR" unicode="&#xd;" horiz-adv-x="823" 
 />
    <glyph glyph-name="space" unicode=" " horiz-adv-x="491" 
 />
    <glyph glyph-name="exclam" unicode="!" horiz-adv-x="397" 
d="M106 643q6 14 9 31q10 38 28 84t28.5 69t41 83.5t35.5 70.5q27 56 78 166.5t77 165.5q1 3 5.5 10t5.5 8q15 35 43 25q23 -10 12 -45q-4 -14 -14 -39q-12 -28 -35.5 -80t-26.5 -59q-23 -44 -84.5 -165.5t-95.5 -185.5q-12 -24 -27.5 -47.5t-36.5 -51.5t-32 -44
q-2 1 -5.5 2t-5.5 2zM80 416q-12 -36 -25 -54q-22 -19 -45 -4q-17 24 -2 48q9 16 31 30q11 10 24 6q8 -8 17 -26z" />
    <glyph glyph-name="quotedbl" unicode="&#x22;" 
d="M291 1327l55 107l6 6q10 21 29.5 11.5t11.5 -28.5q-21 -52 -63 -131q-19 -27 -34 -11q-16 18 -5 46zM391 1327l55 107l7 6q10 21 29.5 11.5t11.5 -28.5q-18 -45 -64 -131q-19 -27 -34 -11q-16 18 -5 46z" />
    <glyph glyph-name="numbersign" unicode="#" horiz-adv-x="1439" 
d="M655 838q30 0 84 4q45 2 140 10q28 0 49 27q21 34 64 99.5t48 72.5q16 25 27 30q5 5 14.5 8.5t12.5 0.5q6 -4 8.5 -13.5t-0.5 -15.5q-3 -21 -21 -43q-14 -23 -42.5 -68t-41.5 -69q-1 -1 -12 -23q37 -1 110.5 4.5t131.5 3.5t110 -18q-61 -23 -127 -32t-146.5 -12.5
t-121.5 -8.5q-15 -22 -42.5 -66t-41.5 -67q62 -11 98 -15v-4q-54 -12 -79 -16q-46 0 -70 -41q-44 -77 -148 -197q-2 -2 -18 -10q22 66 49 117q10 21 32.5 59t29.5 51h-230q-86 -134 -129 -203q-6 9 -4.5 26t3.5 24.5t7 23.5t7 23q5 18 19 50t19 48q-63 0 -96 -2
q-45 -3 -134 -12.5t-134 -12.5q-19 -3 -39 4q-4 1 -8 8t-4 11q5 15 18 18q35 10 43 13q341 30 346 30q29 5 42.5 12t23.5 27q5 10 19 36.5t22 43.5q-44 -6 -125 -10q-110 -4 -160 -4q-29 0 -41 6t-11 15.5t13 17.5q2 0 15.5 3.5t21.5 4.5q195 16 287 22q39 0 59 35
q21 36 64 107.5t63 107.5q12 16 25 29t22 8q6 -3 10 -10t2 -12q-8 -33 -20 -52q-56 -102 -86 -153q-6 -9 -14.5 -26.5t-12.5 -24.5zM788 666q16 24 44 70.5t34 56.5q-149 -11 -245 -13q-43 -68 -66 -114h233z" />
    <glyph glyph-name="dollar" unicode="$" horiz-adv-x="841" 
d="M827 1401l-63 -86q51 -35 59.5 -77t-20.5 -105q-50 -110 -174 -191q-34 -23 -51 -4q3 10 8.5 18t15.5 17.5t14 13.5q90 85 97 92q45 52 51 111q0 27 -4 39q-6 25 -24.5 25t-35.5 -23q-68 -94 -153 -225q-53 -76 -105 -162q39 -23 54 -43q73 -54 108 -96q40 -52 33 -120.5
t-55 -129.5q-116 -143 -295 -152q-26 -1 -73.5 3.5t-57.5 4.5q-24 6 -31 6q-10 -20 -39 -71l-39 -80l-24 -37q-17 -11 -27 -8q-8 4 -8 22l12 54q12 24 34.5 71t33.5 70q-7 7 -25 16q-107 57 -168 207q-5 14 -2 19q4 25 14 30q5 4 14.5 3.5t14.5 -5.5q11 -11 31 -39
q48 -83 53 -90q36 -51 100 -78q40 63 127 204t135 216l-28 33q-35 39 -47 66q-27 52 -13.5 111t64.5 108q74 72 207 129q45 18 125 41q31 6 45 28q53 66 67 86q3 3 9 11t12 13.5t12 8.5q3 4 13.5 6.5t13.5 -0.5q14 -7 6 -28q-1 -7 -10.5 -19.5t-10.5 -13.5zM410 793
q-155 -234 -250 -410q35 -17 97.5 -19.5t111.5 11.5q86 26 151 94q54 60 57 118t-45 103q-21 20 -65 56t-57 47zM399 881l242 362q-105 -31 -213 -98q-21 -17 -59 -51q-46 -46 -37 -101q8 -65 67 -112z" />
    <glyph glyph-name="percent" unicode="%" horiz-adv-x="1062" 
d="M233 1057l19 -23q33 21 33 60q2 18 -2 53q-5 14 -13 49q-3 60 43 78q55 25 107 31q185 19 422 2l37 -2q76 -24 51 -101q-8 -21 -25 -45q-126 -163 -174 -217q-275 -309 -522 -655q-17 -22 -34 -48t-37 -59.5t-29 -48.5q-2 -2 -9 -14.5t-10.5 -16.5t-10.5 -12.5t-15 -12
t-17 -5.5q-24 22 -6 59q35 78 70 123q193 269 286 383q58 74 122.5 151.5t154 182t125.5 147.5q24 28 55 74q17 25 25 49q-35 10 -43 10q-258 18 -430 -4q-57 -8 -68.5 -23t0.5 -71q20 -79 -25 -139q-26 -34 -58.5 -33t-55.5 35q-43 58 -36.5 137.5t60.5 130.5q5 6 33 23
q16 0 25 -9q3 -3 3.5 -11t-1.5 -11q-6 -12 -23 -29q-34 -39 -42 -91t15 -97zM586 260q20 117 86 207q13 18 24 22q8 6 21 1l2 -3q3 -5 6 -8.5t8 -6t7 -3t9 -2.5t9 -2q63 -15 63 -84q-6 -140 -129 -217q-38 -23 -69 -8t-35 61q-1 7 -1 22.5t-1 20.5zM645 211q8 1 11.5 -1
t9.5 1t7.5 3t6.5 4.5t6 5.5t5 6t5 6q43 35 60 94q11 25 8 47q0 18 -7.5 24.5t-25.5 6.5q-16 -2 -26 -5.5t-20 -12.5t-15 -25q-4 -15 -14.5 -45.5t-14.5 -47.5q-8 -38 4 -61z" />
    <glyph glyph-name="ampersand" unicode="&#x26;" horiz-adv-x="1222" 
d="M651 367l-24 30l-103 -69q-188 -120 -338 -154q-47 -12 -137 -20q-26 -2 -76 6q-44 14 -64.5 51t-10.5 84q11 40 36 88q70 127 209 266l258 242q15 12 23 20q38 28 35 78q0 118 41 223q41 123 149 193q60 44 123 41q49 -3 72 -33t14 -78q-14 -59 -53 -114
q-62 -87 -201 -222q-45 -45 -63 -59q-23 -18 -23 -53q16 -154 72 -281q22 -53 53 -117q102 73 191 175q24 27 108 139q34 46 56 43t-1 -56l-2 -4q-47 -88 -98 -137q-35 -36 -103.5 -100.5t-97.5 -93.5l-18 -13q1 -2 3.5 -11.5t6.5 -14.5q34 -46 64 -76q57 -61 108 -76
q20 -6 15.5 -22t-23.5 -21q-20 -5 -35 -0.5t-36 16.5q-3 2 -5 3q-62 47 -125 127zM455 860q-4 -4 -15.5 -13t-17.5 -16q-109 -96 -148 -133q-175 -161 -258 -286q-17 -25 -57 -111q-21 -63 41 -82q15 -6 39 -6q72 4 111 10q198 41 419 205q19 15 20.5 22t-7.5 29
q-50 101 -70 168q-10 29 -19.5 63t-20.5 80t-17 70zM516 995q147 131 234 244q16 23 36 61q25 53 7 76q-11 11 -25.5 13t-26 -1t-30.5 -10q-13 -5 -43 -22q-62 -48 -101 -121q-38 -81 -45 -186q-5 -37 -6 -54z" />
    <glyph glyph-name="quotesingle" unicode="'" horiz-adv-x="401" 
d="M291 1327l55 107l6 6q10 21 29.5 11.5t11.5 -28.5q-21 -52 -63 -131q-19 -27 -34 -11q-16 18 -5 46z" />
    <glyph glyph-name="parenleft" unicode="(" horiz-adv-x="481" 
d="M256 12q-10 -16 -47 -16q-16 6 -41 16q-189 95 -215 269q-24 155 45 342q150 385 496 682q133 117 325 225q31 15 53 22q9 3 20.5 1t16.5 -7q11 -7 -7 -25l-1.5 -1.5l-1.5 -1.5q-3 -3 -9 -6.5t-9 -6.5q-351 -192 -580 -481q-182 -226 -262 -475q-34 -104 -31 -213
q6 -190 203 -283q14 -6 20.5 -9t14.5 -11.5t10 -20.5z" />
    <glyph glyph-name="parenright" unicode=")" horiz-adv-x="718" 
d="M584 1075q-3 -202 -90 -399q-86 -188 -238 -357q-153 -173 -362 -278q-91 -43 -181 -49q-21 -4 -35 2q-20 5 -20 16q-6 9 12 23q10 10 27 10q125 10 266 102q204 130 332 316q139 182 197 370q85 290 -29 558q-8 20 -30 54t-27 44q-1 2 -6.5 9t-7 10t-0.5 8.5t7 9.5
q12 5 23 0.5t18 -13.5q49 -41 82 -125q62 -151 62 -311z" />
    <glyph glyph-name="asterisk" unicode="*" horiz-adv-x="940" 
d="M901 1339q-7 -12 -18 -18t-19 -7.5t-23.5 -2.5t-21.5 -2q-31 -6 -92 -13q-4 -38 -16 -122q-1 -4 -2.5 -19.5t-3 -22t-7.5 -17.5t-16 -19q-21 27 -23 59t4.5 70t4.5 59q-25 11 -47 -20l-132 -170q-15 -24 -47 -37q-21 18 0 43q78 107 82 112q38 50 41 54q-17 7 -31.5 2.5
t-31.5 -1.5t-29 21q19 15 29 19q20 10 51 10q59 0 94 61q2 3 62 78q20 12 39 8q11 -3 15 -15t-1 -24q-1 -3 -8 -30l-9 -37q29 -8 52.5 -2.5t53 4t50.5 -20.5z" />
    <glyph glyph-name="plus" unicode="+" horiz-adv-x="522" 
d="M301 805q23 -7 44.5 -3t47 1.5t39.5 -19.5q-3 -5 -7 -9.5t-7 -7t-8 -5t-7.5 -3.5t-8 -2t-8 -1.5t-8.5 -1t-7 -0.5q-46 -4 -70 -4q-34 0 -47 -29l-74 -133q-11 -21 -21 -31t-32 -22q-16 14 2 53l70 129q4 12 10 24l-109 -12h-37q-5 1 -11 10.5t-7 10.5q17 17 21 18l94 18
q30 5 41 5q45 -3 65 45q16 32 49 75q3 7 11.5 14t13.5 5q23 -5 10 -31q-15 -26 -22 -45q-3 -6 -13 -22.5t-14 -26.5z" />
    <glyph glyph-name="comma" unicode="," horiz-adv-x="315" 
d="M115 651q9 -27 -7 -75t-40 -60q-18 -9 -29 -2q-5 3 -8 12t0 15q8 21 26 60t23 50q13 11 18.5 11t16.5 -11z" />
    <glyph glyph-name="hyphen" unicode="-" horiz-adv-x="626" 
d="M113 762q-19 0 -25 4q-11 9 -14.5 18t2 16t18.5 11h96q39 1 114.5 6t84.5 6q52 5 66 4q16 -4 21 -13t0.5 -18.5t-15.5 -17.5q-6 -4 -25 -4q-136 -12 -323 -12z" />
    <glyph glyph-name="period" unicode="." horiz-adv-x="303" 
d="M131 629q0 -17 -12 -29t-27 -12q-36 0 -33 33q0 15 13 26.5t28 9.5q12 0 21.5 -8t9.5 -20z" />
    <glyph glyph-name="slash" unicode="/" horiz-adv-x="858" 
d="M913 1411l78 107q42 28 56 6.5t-13 -60.5q-39 -54 -131.5 -175.5t-126.5 -168.5l-473 -659l-246 -369q-2 -2 -14.5 -15.5t-19.5 -19.5q-30 16 -11 49q76 140 94 166q104 157 386 549q185 266 421 590z" />
    <glyph glyph-name="zero" unicode="0" 
d="M-150 266q33 107 60 164q143 336 354 627q39 53 92 109.5t91.5 92.5t105.5 97q34 31 86 49q40 15 68 0t32 -55q5 -32 -2 -78q-17 -106 -71 -221q-208 -434 -502 -754q-78 -85 -166 -135q-19 -11 -33 -17q-60 -19 -92 12t-23 109zM682 1298q4 8 0 31q-7 34 -37 19
q-21 -7 -37 -23q-59 -45 -92 -80q-29 -30 -83.5 -93t-82.5 -93q-8 -8 -30 -29.5t-36.5 -38.5t-25.5 -35q-8 -12 -23.5 -36t-28 -43t-22.5 -37q-3 -5 -25.5 -44t-27 -47t-24.5 -43t-26 -47t-23 -43.5t-25 -47.5t-22 -44.5t-23 -48.5t-19.5 -45t-19.5 -49q-32 -91 -43 -139
q-5 -30 9.5 -40t43.5 3q25 11 66 43q76 55 178 176q227 274 391 612q73 143 88 262z" />
    <glyph glyph-name="one" unicode="1" horiz-adv-x="411" 
d="M467 1278q-38 -29 -113.5 -88.5t-113.5 -89.5q-22 -17 -35 -23q-8 -7 -17.5 -7t-13.5 9q-6 10 4 35q2 4 6.5 9t10.5 9.5t8 6.5q243 190 370 286q11 11 35 23q26 15 41 -4q20 -17 4 -41q-13 -26 -26 -39q-115 -138 -219 -305q-135 -222 -229 -391.5t-169 -343.5
q-10 -24 -26.5 -71.5t-24.5 -68.5q-26 -65 -61 -100q-21 30 -9 66q18 80 48 155q90 235 286 561q44 76 132 213.5t108 169.5q1 2 5.5 9.5t6.5 13.5q-2 0 -8 6z" />
    <glyph glyph-name="two" unicode="2" horiz-adv-x="768" 
d="M-72 143q44 0 64 2q105 11 298 32.5t269 29.5q49 5 113 -23q-51 -33 -117 -39q-82 -8 -247 -24.5t-247 -24.5q-13 -2 -48.5 -7t-55.5 -7q-12 0 -18 -2q-55 -3 -74 23t4 75q50 109 162 248q13 17 27 33.5t31 34.5t29 31.5t33 33.5t31 30t34 32.5t31.5 29.5t35 32t32.5 30
q33 31 118 107t143.5 133t109.5 116q80 91 111 172q4 6 12 35q10 52 -37 72q-36 17 -92 14q-118 -18 -215 -96q-146 -116 -213 -256q-42 -83 -37 -154q4 -28 -16 -31q-13 -3 -21 6t-8 23q-3 44 2 80q23 108 117 225q143 177 311 238q99 31 172 8q54 -13 79 -52.5t13 -92.5
q-24 -95 -119 -209q-26 -31 -53.5 -61.5t-62.5 -64.5t-55.5 -54t-65.5 -61.5t-59 -55.5q-33 -31 -98.5 -91.5t-116.5 -108.5t-95 -93q-109 -112 -200 -277q-10 -20 -11 -24v-17z" />
    <glyph glyph-name="three" unicode="3" horiz-adv-x="929" 
d="M-119 246q42 -115 182 -125q96 -7 177 26q218 83 348 261q115 150 45 276q-40 78 -127 121q-11 6 -33 12.5t-29 9.5q-37 16 -47 23q-22 12 -20.5 33.5t24.5 38.5q26 18 70 41q199 99 311 196q40 35 95 94q5 5 14.5 19.5t13.5 19.5q42 79 -43 94q-87 21 -200 -22
q-124 -52 -201 -98q-131 -67 -221 -164q-12 -4 -23 -15q-21 16 -4 37q5 7 14 20t15 21t14.5 17.5t17.5 15.5q98 79 168 115q84 50 209 102q82 34 170 31q54 0 90 -16q45 -17 59 -56t-7 -86q-32 -70 -132 -155q-116 -107 -337 -220q-30 -15 -37 -20q8 -4 21.5 -11t19.5 -10
q12 -7 37.5 -20t45 -25t35.5 -26q87 -74 102 -172.5t-52 -210.5q-173 -275 -488 -352q-124 -29 -219 14q-46 18 -86 55q-32 34 -36 106q-3 50 11 53q14 1 33 -48z" />
    <glyph glyph-name="four" unicode="4" horiz-adv-x="808" 
d="M45 618q111 14 143 17q26 2 111 10t131 10q44 3 62 41q192 316 360 553q46 67 80 109q14 18 20 22q9 9 27 9q6 -24 4 -27q-9 -19 -28.5 -48t-26.5 -40q-204 -320 -367 -572q-3 -4 -7.5 -14.5t-8.5 -15.5q10 -3 45.5 -3.5t50.5 -13.5q-16 -36 -55 -43q-28 -8 -39 -6
q-44 5 -70 -43q-186 -315 -274 -502q-24 -61 -74 -90q-15 46 18 107q92 185 152 295q24 43 109 182q1 3 7 16t11 21q-7 0 -17 1t-12 1q-363 -37 -407 -41q-13 0 -19 -2q-31 0 -39 20q-8 17 15 45q8 9 22.5 22.5t20.5 18.5q155 140 395 402q84 88 176 201q9 9 22 28.5
t17 24.5q16 28 35 20q25 -8 8 -39q-13 -29 -39 -63q-100 -133 -285 -326q-44 -46 -131.5 -131t-124.5 -123l-6.5 -6.5t-8 -8.5t-7.5 -7q1 -1 2 -5t2 -6z" />
    <glyph glyph-name="five" unicode="5" horiz-adv-x="1032" 
d="M176 815q10 2 27 4t26 4q241 53 410 2q103 -29 149 -106q57 -106 -28 -260q-75 -133 -221 -232q-222 -151 -457 -139q-113 6 -176 64q-31 25 -36.5 51t9.5 69q26 -14 45 -41q61 -73 160 -79q330 -15 575 260q60 73 80 151q33 117 -65 178q-86 52 -240 52
q-129 -3 -260 -41q-45 -9 -53 -9q-21 0 -29 13t0 35q4 8 16 25t17 26q52 74 146 211.5t128 187.5q4 4 12 16.5t11 16.5q35 51 94 57q163 7 442 58q25 3 99 22l30 6q12 2 20 -2t7 -12q0 -14 -20 -29q-53 -23 -72 -26q-169 -36 -227 -43q-72 -11 -279 -33q-31 -2 -57 -39
q-66 -105 -166 -252q-48 -71 -117 -166z" />
    <glyph glyph-name="six" unicode="6" horiz-adv-x="800" 
d="M240 856q36 49 84 49q130 9 231 -67q100 -79 78 -217q-26 -145 -133 -269q-149 -172 -361 -209q-111 -20 -178 47q-56 59 -49 162q12 78 37 154q62 169 233 414q152 209 281 352l143 143q35 35 51 12q14 -14 -14 -49q-24 -26 -70 -74t-82 -87.5t-67 -75.5
q-46 -57 -215 -289q-87 -115 -172 -285q-57 -125 -64 -207q-3 -37 2 -67q21 -92 115 -92q60 -2 141 30q257 110 332 367q8 33 10 49q12 101 -71 152q-62 40 -166 47q-14 1 -28.5 2.5t-34 4t-33.5 3.5z" />
    <glyph glyph-name="seven" unicode="7" horiz-adv-x="874" 
d="M918 1352q-7 -1 -82 -6q-380 -41 -643 -72q-19 -4 -37 -0.5t-27 22.5q1 5 2.5 9.5t5 7.5t5.5 5t7.5 4.5t7 3t8 3t7.5 2.5q103 12 107 12q81 9 243.5 29t243.5 29q22 2 70 8t71 8q35 3 60 -6q27 -7 34.5 -29.5t-6.5 -48.5q-3 -4 -23 -33.5t-34 -44.5q-15 -17 -83.5 -93.5
t-104.5 -119.5q-70 -83 -197 -240t-164 -202q-5 -5 -20 -35q6 0 17.5 -1t16.5 -1q142 18 236 23q35 1 48 -4.5t30 -28.5q-26 -28 -74 -35q-39 -2 -138 -11t-151 -11q-46 -5 -73 -47q-97 -128 -222 -347q-24 -50 -71 -61q-3 10 -3 20t0.5 17t5.5 19.5t6.5 16.5t8.5 19
q30 47 89.5 145t88.5 144q30 42 35 51q-39 0 -57 -4q-58 -7 -101 -14q-27 0 -30 2q-21 7 -21 22q-2 6 6 15t17 10q29 10 106 24q53 12 105 15q30 5 55 37q204 276 436 542q155 173 158 176q7 7 17.5 21.5t13.5 17.5q0 3 -6 15z" />
    <glyph glyph-name="eight" unicode="8" horiz-adv-x="759" 
d="M338 504q-14 -6 -31.5 -16t-23.5 -13q1 12 0.5 20.5t0 17t3.5 15.5q7 24 -13 50q-59 63 -88 133q-79 179 21 354q165 281 469 360q70 16 125 0q84 -28 78 -120q-2 -73 -60 -162q-64 -107 -219 -289q-96 -118 -209 -260q-20 -27 -19.5 -34.5t19.5 -31.5q50 -75 62 -122
q18 -106 -70 -185q-104 -90 -240 -112q-61 -7 -98 -3q-62 4 -98.5 51t-36.5 117q-3 70 49 148q66 99 193 186q39 17 41 17q12 3 26 -11q2 -5 -1 -13.5t-9 -14.5q-3 -5 -12.5 -11t-12.5 -8q-43 -33 -63.5 -49.5t-52 -47.5t-52.5 -60q-34 -58 -45 -91q-20 -55 3.5 -102
t74.5 -55q40 -3 76 0q114 15 209 86q48 40 59.5 81t-10.5 97q-7 18 -45 78zM334 610q5 5 12 19q34 41 100.5 122.5t100.5 122.5q7 9 43.5 52.5t49.5 60t40 51t46.5 62.5t37.5 57q44 69 57 129q8 39 -9.5 62.5t-55.5 23.5q-58 4 -103 -8q-264 -87 -399 -326
q-62 -104 -41.5 -220t121.5 -208z" />
    <glyph glyph-name="nine" unicode="9" horiz-adv-x="768" 
d="M422 557q-104 -42 -146 -49q-88 -15 -146.5 30t-61.5 130q-6 74 24 147q113 304 379 492q87 64 180 84q63 13 104 -14t50 -89q10 -89 -27 -196q-47 -134 -162 -334q-150 -254 -260 -402q-116 -159 -215 -239q-79 -57 -139 -62q-12 -1 -23 1t-30.5 8.5l-22.5 7.5
q-34 10 -34 31q0 19 26 23q14 3 33 -1q78 -24 145 31q81 68 109 102q121 136 209 281q0 1 3 7.5t5 10.5zM741 1184q1 10 3.5 30.5t3.5 30.5q0 121 -125 80q-1 -1 -3 -1.5t-5.5 -1.5t-6.5 -3q-106 -43 -202 -133q-130 -121 -218 -285q-63 -130 -61 -215q0 -65 40.5 -97.5
t108.5 -23.5q78 13 185 97q68 51 94 106q15 29 43.5 79.5t40.5 72.5q28 54 43.5 87t33.5 83t25 94z" />
    <glyph glyph-name="colon" unicode=":" horiz-adv-x="344" 
d="M190 856q0 -17 -11.5 -29t-26.5 -12q-36 0 -33 33q0 15 13 26.5t28 10.5q12 0 21 -8.5t9 -20.5zM131 651q0 -17 -12 -29t-27 -12q-36 0 -33 33q0 15 13 26.5t28 10.5q12 0 21.5 -8.5t9.5 -20.5z" />
    <glyph glyph-name="semicolon" unicode=";" horiz-adv-x="344" 
d="M115 653q9 -27 -7 -75t-40 -60q-18 -9 -29 -2q-5 3 -8 12t0 15q8 21 26 60t23 50q13 11 18.5 11t16.5 -11zM190 856q0 -17 -11.5 -29t-26.5 -12q-36 0 -33 33q0 15 13 26.5t28 10.5q12 0 21 -8.5t9 -20.5z" />
    <glyph glyph-name="less" unicode="&#x3c;" horiz-adv-x="804" 
d="M186 700l80 -22l209 -45q51 -12 68 -41q-40 -24 -66 -17q-161 32 -301 70q-7 1 -51 23q-39 34 -4 65q22 19 53 33q228 100 307 137q29 12 85.5 39.5t62.5 30.5q22 11 45 16q13 0 20 -10q0 -19 -2 -27q-6 -8 -26 -20q-88 -46 -177 -90q-68 -32 -286 -125z" />
    <glyph glyph-name="equal" unicode="=" horiz-adv-x="577" 
d="M131 815h-20q-35 0 -37 27q-1 12 7.5 17t22.5 7l312 15q20 0 26 -9q1 -1 5 -6l6 -7.5t3.5 -6.5t0.5 -8q0 -5 -8 -11t-15 -8q0 -3 -37 -1l-37 1q-20 -3 -229 -10zM78 700l246 5q49 0 49 -29q0 -14 -10.5 -20t-38.5 -7l-183 -8q-41 0 -61 6q-17 0 -33 12q-12 9 -8 29
q0 5 20 12q3 1 5.5 1t6.5 -0.5t7 -0.5z" />
    <glyph glyph-name="greater" unicode="&#x3e;" horiz-adv-x="784" 
d="M203 909q9 8 20.5 11t17 2.5t18.5 -4t15 -3.5q154 -39 201 -51q66 -18 129 -37q33 -11 33 -36q3 -28 -27 -39q-40 -24 -69 -33l-334 -119q-34 -7 -86 -22q-35 -5 -39 14q-3 11 5.5 19t21.5 10q17 8 43 16l303 98q19 6 55.5 22t54.5 23q-31 15 -39 17l-182 45
q-10 2 -94 24q-43 9 -47 43z" />
    <glyph glyph-name="question" unicode="?" horiz-adv-x="1181" 
d="M324 1004q-18 -26 -52 -19q-44 9 -69 46t-19 83q7 54 56 113q176 195 378 266q163 59 285 20q71 -20 101 -71t16 -125q-13 -65 -78 -166q-90 -130 -231 -274q-192 -192 -385 -388q-31 -29 -93 -104q-30 -45 -61 -58q-22 -10 -20 15q1 16 14 45q6 8 19.5 28.5t21 31.5
t20.5 27t25 28q39 40 131.5 133.5t140.5 144.5q176 176 295 314q15 16 31.5 39t27.5 39t29.5 45.5t26.5 42.5q18 26 29 79q12 90 -76 117q-81 26 -178 4q-160 -35 -303 -153q-22 -19 -127 -119q-19 -27 -29 -49q-38 -69 35 -115q6 -2 19.5 -9.5t19.5 -10.5zM176 129
q0 -25 -17 -44t-40 -22q-21 0 -35 12.5t-14 33.5q-1 25 14.5 41t40.5 16q23 3 37 -7.5t14 -29.5z" />
    <glyph glyph-name="at" unicode="@" horiz-adv-x="1226" 
d="M795 956q-27 31 -54 9q15 -24 -6 -66q-1 -3 -7 -14t-7 -15t-3 -15t3 -15q6 -2 11 -2.5t10 1t8.5 2.5t8.5 4t7 4.5t7.5 5.5t6.5 5q79 64 111 152q56 128 37 235q-25 120 -162 96q-121 -20 -260 -114q-148 -112 -258 -283q-121 -183 -170 -358q-30 -106 -23 -172
q0 -32 15 -66q35 -104 161 -110q147 -8 285 79q250 156 395 377q11 17 28 53t26 52l3 9t4.5 10.5t6.5 8.5q5 5 15 9.5t14 3.5q18 -6 22 -27q2 -10 -8 -39q-36 -95 -133 -211q-141 -167 -324 -284q-134 -83 -282 -97q-126 -6 -204 50.5t-87 164.5q-12 100 33 234
q94 285 284 493q136 152 297 224q104 50 197 47q74 0 121 -34t59 -97q25 -135 -41 -279q-48 -101 -125 -162q-26 -21 -63 -37q-47 -18 -86 25q-3 6 -9 12q-32 -13 -69 -39l-10 -5t-13 -5q-33 -11 -51 10q-23 15 -6 43q4 6 16 24.5t19 27.5q89 96 176 125q24 8 59 8
q12 -2 35 -25q6 -7 1 -17t-21 -16zM668 920q-24 -15 -33.5 -21t-25 -22t-23.5 -35q58 37 82 78z" />
    <glyph glyph-name="A" unicode="A" horiz-adv-x="1914" 
d="M920 -104q0 52 30 100q115 203 185 313q95 148 266 412q18 30 22 39h-41q-29 -1 -101.5 -5.5t-111.5 -4.5q-40 -3 -77 -29q-64 -59 -375 -330q-34 -27 -74 -49q-4 -3 -8 -3t-10.5 1.5t-10.5 1.5q1 3 3.5 14t5.5 13q1 1 61 55q182 165 322 283q7 5 18.5 18.5t17.5 19.5
q-62 -4 -71 -4q-101 -5 -301.5 -14t-302.5 -14q-35 -2 -139.5 -10.5t-159.5 -10.5q-26 -3 -54 4q-7 4 -16 23q-2 7 14 18q9 4 31 8q215 18 369 25q73 6 360 25q199 8 303 10q39 0 68 29q26 24 290 264.5t400 365.5q95 92 186 183q22 19 33 24q5 2 17.5 1t17.5 -5
q12 -8 8 -35q-1 -5 -4.5 -11.5t-9 -14.5t-8.5 -13q-91 -131 -258 -374.5t-213 -309.5q-15 -22 -54 -82q11 -1 50.5 -5t56.5 -6t47 -9.5t55 -18.5q-10 -2 -27 -5.5t-26 -4.5q-28 -2 -86.5 -8t-87.5 -8q-28 0 -41 -21q-67 -108 -217 -342.5t-228 -361.5q-7 -10 -27.5 -42
t-33.5 -50q-26 -37 -63 -49zM1212 821q0 -1 5 -6q24 1 67 2.5t78.5 2.5t67.5 1q38 0 61 33q55 84 159 237t132 195q47 64 94 137q0 2 -4 2q-57 -52 -295 -269t-365 -335z" />
    <glyph glyph-name="B" unicode="B" horiz-adv-x="2330" 
d="M1747 1430q-103 -28 -199 -64q-261 -98 -387 -164q-5 -3 -23.5 -13t-25 -14t-22.5 -13.5t-24.5 -15.5t-20.5 -15t-22 -18t-19 -19q-22 -22 -31 -7q0 27 4 33q8 19 39 45q74 68 229 142q399 179 733 243l73.5 12t66 8.5t75.5 3.5t66 -7q28 -7 35 -8q53 -18 60.5 -66
t-38.5 -102q-37 -43 -125 -115q-194 -139 -495 -275q-101 -41 -195 -86q-9 -2 -51 -26v-12q13 -2 80 -17q34 -5 105.5 -14t126 -17t104.5 -18q116 -19 209 -59q6 -12 28 -25q28 -26 27 -61t-33 -68q-6 -9 -13.5 -17t-13.5 -14t-16.5 -13.5t-16 -11.5t-17.5 -11t-16 -9
t-18 -9.5t-16 -8.5q-150 -73 -352 -131q-123 -34 -349.5 -90.5t-299.5 -75.5q-61 -18 -82 -51q-50 -49 -105 -99q-1 1 -3 2t-3 2q19 42 66 113q-99 -20 -287 -65.5t-336.5 -75t-281.5 -41.5v8q90 38 122 47q30 12 65 24t59.5 19.5t68 19t60 15.5t69.5 16.5t63 14.5
q180 46 420 98q4 2 14 5.5t16 6.5t13.5 9t12.5 14q59 79 195 257t206 271q13 18 20 43q3 44 35 60q37 20 66 67q139 197 284 408q7 14 21 35zM999 291q9 1 19.5 1.5t17 1t11.5 1.5q382 102 614 166q170 44 328 127q26 16 61 47q25 22 0 41q-5 5 -15.5 10.5t-13.5 7.5
q-24 6 -65.5 19.5t-61.5 19.5q-55 14 -123 26t-114 17.5t-129 15t-119 13.5q-4 3 -9.5 1.5t-7.5 -1.5t-7 -4t-7 -6t-6.5 -7t-7.5 -8q-127 -180 -338 -450q-11 -19 -27 -39zM1530 1001q17 7 31 11q59 30 120 57q256 116 404 215q84 55 164 125q14 10 21.5 16t14.5 19t5 26
q-4 29 -54 29q-122 0 -145 -2q-36 -4 -112 -17.5t-115 -17.5q-35 -6 -54 -37q-55 -94 -127 -194q-27 -41 -80 -120.5z" />
    <glyph glyph-name="C" unicode="C" horiz-adv-x="1425" 
d="M1200 1085q-5 10 -5.5 20t1.5 16t6.5 15.5t5.5 14.5q3 8 14 36.5t16.5 46.5t8.5 36q9 81 -46 149t-132 74q-78 3 -170 -39q-167 -73 -313 -197q-243 -206 -371 -415q-130 -212 -145 -385q-11 -121 36 -187q56 -94 203 -84q103 7 246 70q284 118 528 342q85 76 166 129
q-7 -20 -8 -22q-91 -149 -280 -287q-235 -174 -476 -252q-115 -43 -223 -43q-93 -2 -163 56t-85 157q-20 123 27 262q58 192 195 375q206 263 430 416q175 116 317 149q71 18 128 5.5t98 -46.5t64 -80.5t25 -97.5q11 -100 -63 -205q-4 -7 -35 -29z" />
    <glyph glyph-name="D" unicode="D" horiz-adv-x="2205" 
d="M424 184q-25 -10 -95 -40.5t-101 -43t-90 -35.5t-91.5 -31.5t-73.5 -17.5t-67.5 -6t-44.5 15q0 2 -1 5t-1 5q-14 17 14.5 35t93.5 38.5t139.5 41.5t172.5 52.5t172 63.5q36 16 55 45q126 194 354.5 549t304.5 473l25 45q-14 0 -36.5 1t-39.5 1t-33 -2q-312 -27 -522 -75
q-2 -1 -11 -4.5t-14 -4.5t-12 2.5t-12 12.5q-4 14 8 34.5t33 24.5q75 25 152.5 40t174 20.5t149.5 6.5t169 1q29 0 51 28q39 68 64 97q16 25 41 43q3 4 10.5 4t9.5 -4q11 -7 6 -27q-3 -18 -16 -31q-35 -65 -64 -110q137 -12 193 -21q283 -46 418 -98q97 -34 155 -92
q47 -46 55 -102.5t-24 -116.5q-38 -69 -125 -138q-142 -114 -328 -200q-216 -103 -495 -219q-107 -43 -304.5 -113.5t-267.5 -97.5q-49 -16 -79 -62q-10 -16 -30.5 -50t-37.5 -61.5t-33 -48.5q-109 -128 -45 18q13 29 74 150zM598 328q1 -2 2 -5t2 -4q14 3 23 9
q30 9 86.5 28.5t76.5 26.5q510 191 775 317q217 101 370 226q60 50 95 100q36 46 29.5 90t-54.5 76q-56 39 -129 68q-269 90 -580 112q-39 3 -53 -29q-61 -105 -184 -299q-37 -58 -420 -651q-7 -11 -19.5 -32.5t-19.5 -32.5z" />
    <glyph glyph-name="E" unicode="E" horiz-adv-x="2007" 
d="M252 90q5 -3 11 -4.5l10 -2.5t10.5 -1.5t10 -0.5t10.5 1t9.5 1t10.5 1.5t10 1.5q10 1 219 35q92 14 274.5 42t274.5 42q67 11 204.5 32.5t204.5 32.5q211 25 314 13q-18 -9 -25 -9q-36 -12 -78 -23t-70 -18t-82 -16t-71.5 -12t-82.5 -12.5t-75 -10.5q-101 -17 -295.5 -47
t-216.5 -33q-164 -28 -469 -73q-52 -8 -108 -2q-38 1 -52.5 24.5t-2.5 57.5q19 49 53 106q87 155 242 414q27 53 28 57q-10 -3 -23 -3.5t-18 -2.5q-193 -31 -373 -64q-13 -1 -36 -8t-29 -8q-16 -4 -23 -4q-17 4 -22 14q-2 3 1 11.5t7 9.5q22 18 47 24q121 34 174 43
q160 25 305 45q24 2 43 27q45 78 220 369q25 44 133 217q5 9 18 29.5t21 33.5q-58 -4 -140 -12q-53 -8 -149.5 -22.5t-134.5 -20.5q-20 -3 -37 0q-11 3 -21 22q0 6 17 23q5 1 15 5t15 5q218 45 390 58q62 5 65 6q8 2 16 5.5t19 10.5t16 10q6 -13 16.5 -18.5t22.5 -5t25 1.5
q82 6 250 10q67 0 282 1.5t332 0.5q12 0 63 -0.5t71.5 -1.5t60.5 -3.5t71.5 -7t61.5 -11.5q23 -4 48 -12.5t54.5 -20.5t44.5 -17q5 0 8 -14h-77q-101 9 -204.5 15t-228 8t-197.5 2.5t-228 0t-205 -0.5q-201 -10 -250 -11q-32 0 -49 -26q-58 -100 -172.5 -295.5
t-171.5 -294.5q-4 -5 -8.5 -12.5t-10.5 -18.5t-10 -18h31q137 8 415 28q148 12 303 -16q13 -4 19 -12q-37 -4 -112.5 -13.5t-112.5 -13.5q-229 -15 -365 -22q-25 -2 -88.5 -8t-97.5 -7q-30 -3 -47 -28q-54 -95 -157.5 -272.5t-148.5 -256.5q-1 -2 -22 -49z" />
    <glyph glyph-name="F" unicode="F" horiz-adv-x="1626" 
d="M762 864q71 -3 133 0q51 1 140.5 2.5t163 2.5t140.5 1q123 0 111 -16q-13 -18 -130 -36l-71 -7q-82 -2 -497 -12q-46 0 -72 -35q-66 -88 -130.5 -191t-142.5 -237t-118 -199q-34 -55 -47 -88q-27 -35 -54 -37q-22 17 -10 49q19 47 35 76q13 22 221 361q13 21 67.5 117
t88.5 139q5 7 15 19.5t13 17.5q-85 0 -141 -5q-47 0 -137 -8q-53 0 -53 23q0 28 45 33q36 4 108.5 9t108.5 9q17 1 94 6q30 -3 49 23q52 64 143 223.5t158 232.5q1 3 3 6.5t5 8.5t5 10q-99 -13 -179 -27q-368 -70 -454 -90q-49 -10 -99 -23.5t-121 -34.5t-94 -28
q-5 -1 -18.5 -5.5t-21 -6t-19 0t-20.5 7.5q-1 14 5 23t13.5 12.5t19.5 7.5q75 28 199 66q309 89 793 155q20 5 30.5 9t23.5 14.5t21 25.5q7 17 21 31q25 35 43 17q3 -2 5 -4.5t3 -4.5t1 -5.5v-5.5t-1 -6t-1.5 -5t-2.5 -6t-2 -6q-5 -12 -18 -33q130 15 145 16q261 30 364 37
q143 12 347 16q119 3 262 -49q5 0 8 -10h-74q-18 0 -124 -1t-146 -2t-116.5 -4t-137.5 -9q-64 -7 -197 -19.5t-200 -19.5q-23 -2 -72 -8.5t-74 -8.5q-31 -3 -49 -32q-14 -20 -76.5 -111.5t-88.5 -130t-69 -109.5t-73 -131z" />
    <glyph glyph-name="G" unicode="G" horiz-adv-x="2119" 
d="M1898 770q-28 -4 -79 -13t-70 -12q-25 -3 -33 -24q-19 -36 -49 -66q-34 -37 -72.5 -86t-61.5 -81t-67.5 -96.5t-60.5 -86.5q-28 -41 -80.5 -129.5t-69.5 -114.5q-42 -59 -61 -59q-10 0 -16.5 2.5t-9.5 7t-4 10t1 13.5t4 14t6.5 14.5t7.5 13.5t7.5 13t5.5 10
q31 57 106.5 166.5t106.5 169.5q-24 -14 -71.5 -42t-71.5 -42q-318 -176 -564 -233q-123 -29 -202 -17q-64 12 -86.5 62t4.5 125q32 73 90 153q84 108 227 238q170 144 240 199q6 7 18.5 18.5t14.5 13.5q-2 5 -4 9q-82 -30 -95 -33q-17 -5 -110 -35t-125.5 -40t-103.5 -31
t-125.5 -34.5t-108.5 -25.5q-42 -8 -273 -39q-22 -3 -47 0q-30 4 -30 39q4 1 15.5 4.5t18.5 3.5q245 18 578 123q59 18 506 166q86 27 184 90q314 208 492 295q61 31 233 98q26 12 60 8q29 -1 36.5 -27t-12.5 -55q-26 -30 -78 -69q-113 -88 -284 -160q-158 -69 -404 -162
q-93 -34 -162 -86q-309 -220 -538 -454q-48 -55 -111 -140q-24 -32 -45 -94q-14 -34 -5 -57t38 -29q64 -13 123 -2q188 27 413 137q243 117 402 228q105 80 145 137q3 4 9.5 12.5t13 17.5t12.5 19q-30 -5 -91 -16t-93 -15q-35 -8 -105.5 -25.5t-105.5 -25.5q-12 -2 -35 -2
q-5 1 -9.5 6.5t-4.5 9.5q0 5 3.5 14.5t6.5 10.5q22 16 49 23q54 11 292.5 56t364.5 77q103 26 119 2q12 -17 -28 -40q-35 -20 -91 -30zM2007 1430q-61 -7 -251 -106.5t-228 -143.5q83 15 263.5 109t215.5 141z" />
    <glyph glyph-name="H" unicode="H" horiz-adv-x="2160" 
d="M1749 758q74 -1 114.5 -3t100.5 -10.5t109 -23.5v-8q-26 -1 -77.5 -7.5t-78.5 -7.5q-59 -4 -180 -4q-33 0 -54 -30q-93 -139 -417 -617q-15 -21 -45.5 -62t-44.5 -61q-28 -42 -58 -22q-28 15 -4 61q13 36 66 92q32 32 112 144q47 69 99.5 147t116 172t98.5 146
q8 16 16 26q-28 4 -31 4q-26 0 -73.5 -0.5t-86.5 -0.5t-75 1q-36 0 -51 -30q-140 -208 -168 -248q-15 -23 -33 -45.5t-42.5 -50t-35.5 -41.5q-7 -11 -51 -66q-16 12 0 39q11 19 43.5 77.5t52.5 88.5q28 44 168 256l8 16q-6 0 -14.5 1t-13.5 1q-263 0 -394 -2
q-380 -12 -573 -18q-38 0 -104 -3.5t-89 -4.5h-6h-8t-7 0.5t-7 2t-5.5 3.5t-4.5 5.5t-1 8.5q-1 15 9.5 22t27.5 9q15 1 69 7.5t81 6.5q308 12 602 21q225 6 451 6q38 0 55 32q218 316 327 476q10 13 48.5 66t62.5 83q18 32 49 23q-13 -38 -20 -47q-8 -13 -140 -215
q-43 -65 -131 -196.5t-131 -197.5q-1 -2 -4.5 -8.5t-5.5 -13.5h35h235q26 0 43 26q197 290 316 473q109 160 174 261l3 4q2 4 2 4.5t2.5 4t3 4l3 3t4 3l4.5 1.5t5 1t5.5 -1t6.5 -2q24 -12 4 -51q-56 -99 -92 -152q-67 -105 -192 -295.5t-160 -244.5q-4 -4 -7 -9.5
t-7.5 -14.5t-8.5 -15z" />
    <glyph glyph-name="I" unicode="I" horiz-adv-x="1331" 
d="M1292 1462q-256 -9 -506 -43q-40 -5 -118.5 -16.5t-118.5 -16.5q-2 0 -19.5 -2t-24 -2t-18 4t-18.5 13q1 7 3.5 12t8.5 9l7.5 5t11.5 4l10 3q148 25 217 34q345 52 698 64l177 6q122 5 147 -15q14 -11 -21 -21q-38 -12 -116 -17q-55 -6 -215 -15q-35 0 -54 -24
q-58 -76 -116 -162t-139.5 -216t-106.5 -169q-79 -121 -227.5 -343.5t-182.5 -274.5q-7 -11 -29.5 -50.5t-42.5 -71t-36 -46.5q-3 -2 -13 -10.5t-18 -14.5q92 0 133 2q75 0 263.5 2.5t289.5 1.5q153 -5 140 -21q-12 -14 -142 -28q-133 -10 -242 -10q-125 0 -387 -8
q-302 -5 -360 -5q-20 -1 -56.5 -1.5t-66.5 -1.5t-55 -3q-28 -1 -40 3t-30 20q4 33 51 33q23 3 160 8q45 1 133.5 2t132.5 2q7 0 18 1t13 1q81 95 207.5 314.5t157.5 265.5q37 57 152 237t197.5 302t166.5 229q2 2 9.5 12.5t14.5 17.5z" />
    <glyph glyph-name="J" unicode="J" horiz-adv-x="2152" 
d="M1614 780q35 0 51 4q44 8 146 27t157 29q17 4 55 -4q16 -6 17.5 -20.5t-15.5 -22.5q-14 -11 -40 -15q-111 -23 -359 -65q-52 -11 -78 -62q-149 -279 -274 -446q-58 -79 -129 -150q-110 -113 -305 -143q-158 -25 -338 43q-240 93 -408 238q-56 47 -84 106q-41 87 39 143
q46 30 94 47q181 65 385 101q159 30 793 137q31 7 95 17t75 12q48 7 65 45q10 24 69.5 159t78.5 189q14 37 14 117q0 58 -65 71q-44 6 -84 0q-59 -16 -250 -73q-129 -44 -258 -90q-1 0 -8 -3.5t-11 -3.5q-28 6 -30 9q-14 19 16 32q17 13 31 15q23 9 64.5 24.5t77 28.5
t67.5 24q196 64 248 80q45 16 106 19q84 1 127 -51t31 -140q-5 -32 -23 -82.5t-46.5 -118.5t-33.5 -81q-3 -7 -63 -146zM1495 686q-46 -3 -68 -8q-458 -73 -727 -121q-299 -54 -448 -98q-101 -33 -148 -56q-76 -30 -28 -100q31 -47 65 -72q210 -173 457 -241q232 -68 440 55
q88 58 181 180q136 189 260 422q3 5 8 18t8 21z" />
    <glyph glyph-name="K" unicode="K" horiz-adv-x="1576" 
d="M424 1325q4 4 14 17t17 18q4 2 30 19t43 26q164 80 244 98q63 19 104 -8t50 -90q11 -79 -27 -199q-54 -169 -186 -399q-26 -51 -64 -107q2 -1 4.5 -2t3.5 -1.5t2 -0.5q62 47 95 76q409 336 794 576q144 86 307 174q12 9 27.5 16.5t25 10.5t32.5 9.5t28 8.5q16 10 41 6
q6 0 15 -5.5t10 -11.5q3 -10 -9 -26q-5 -7 -20 -12q-129 -39 -283 -134q-390 -237 -753 -516q-24 -21 -29 -55q-18 -129 -12 -260q0 -115 30 -176q68 -159 252 -223q59 -19 113 -33q-86 -42 -156 -12q-243 100 -290 329q-19 130 -3 283q5 56 9 76q-15 -10 -70 -54
q-208 -177 -274 -235q-32 -28 -58 -72q-166 -249 -309 -407q-46 -48 -152 -142q-9 -9 -43 -22q-28 -18 -51 2q-24 16 -12 51q7 21 31 57q67 102 211 250q48 47 144 141.5t144 141.5q16 15 33.5 36.5t24 30.5t29.5 42.5t24 35.5q8 14 40 67.5t43.5 73t38.5 66.5t41 74
t34.5 67.5t36.5 76.5t30 73q53 136 51 221q0 25 -6 49q-16 49 -67 37q-95 -24 -115 -33q-31 -16 -96 -47.5t-97 -46.5q-34 -19 -65 -6zM10 -41q129 102 242 268q-128 -109 -242 -268z" />
    <glyph glyph-name="L" unicode="L" horiz-adv-x="1712" 
d="M1765 172q-49 -5 -146 -13.5t-144 -13.5q-63 -4 -267 -28q-75 -10 -210 -33t-185 -31q-234 -36 -395 -53q-47 -6 -195 -6h-12q-63 8 -90 45.5t-10 97.5q25 80 63 146q102 186 301 454q12 16 43.5 55.5t52.5 67.5t39 55q14 11 17 33q-34 -22 -80 -49q-93 -58 -367 -225
q-37 -22 -141 -64q-26 -13 -47 6q3 2 10.5 9.5t11.5 9.5q74 36 159.5 85.5t145 86.5t158 99.5t146.5 92.5q77 46 144.5 105.5t152.5 146.5q176 183 321 283q20 14 72 43q6 2 15.5 5t10.5 3q29 10 45 -6q18 -18 0 -43q-8 -10 -24 -30.5t-28.5 -35.5t-26.5 -28
q-152 -146 -371 -287q-110 -71 -211 -197q-206 -239 -414 -555q-23 -36 -127 -229q-4 -10 -22 -65q-3 -45 37 -54q42 -10 67 -8q210 13 295 25q122 17 344 53t305 49q147 25 447 45q47 0 88 -8q29 -4 22 -39zM1040 1292q59 32 142 103t98 102q-133 -92 -240 -205z" />
    <glyph glyph-name="M" unicode="M" horiz-adv-x="2301" 
d="M1761 102q-44 -73 -90 -114q-3 42 10 88q27 62 45 96q488 871 687 1196q4 7 10 19l8 16q-4 4 -6 4q-74 -60 -94 -82q-67 -58 -233.5 -235.5t-217.5 -225.5q-54 -49 -161.5 -149.5t-162.5 -149.5q-199 -188 -325 -299q-1 -1 -49 -37q-40 -22 -62 -4q-27 22 -8 60
q14 47 41 92q138 234 279 465q81 132 262 418q14 27 26 45q-21 -6 -24 -9q-201 -164 -477 -329q-284 -163 -527 -297q-216 -122 -420 -199q-45 -17 -192 -59q-29 -8 -49 -4q-3 1 -12.5 6.5t-12.5 7.5q1 2 3.5 6t4 6t3.5 5t4.5 4.5t5.5 2.5q19 8 43 11q176 51 374 147
q513 256 914 518q203 130 428 322q16 16 39 29q7 6 18.5 5t18.5 -10q10 -13 6 -34l-47 -82q-33 -51 -504 -809q-40 -63 -119 -201q-2 -4 -4 -11.5t-2 -8.5l6 -9q15 14 119 103q32 30 114.5 109.5t142.5 136t118 108.5q102 92 357.5 349.5t363.5 353.5q8 8 27.5 21t21.5 15
q35 18 55 2q23 -20 8 -55q-47 -92 -74 -139q-46 -80 -172.5 -291.5t-251 -432t-266.5 -491.5z" />
    <glyph glyph-name="N" unicode="N" horiz-adv-x="1771" 
d="M2011 1434q-186 -295 -309 -498q-57 -101 -121 -216t-141 -256t-121 -220q-4 -10 -16 -28.5t-13 -20.5q-19 -26 -45 -21q-27 7 -39 43q-23 136 -26 178q0 469 -2 705q0 52 3 157.5t3 157.5q1 6 0 19.5t0 23.5q-27 -24 -31 -33q-36 -44 -110.5 -138t-114.5 -142
q-78 -105 -160 -187q-34 -39 -102.5 -117.5t-102.5 -117.5q-59 -66 -176 -195t-176 -194q-86 -82 -131 -123q-14 -14 -51 -29q-26 -15 -43 2q4 17 12 23q66 59 142 137t116.5 121.5t138 152.5t117.5 132q287 332 401 473q81 88 199 245q7 7 21.5 24t21.5 24q25 18 41 15
q6 -1 12 -3q35 -13 35 -53q-1 -25 -0.5 -95t-1.5 -94q0 -46 -1.5 -190t-0.5 -222q-4 -284 -2 -423q1 -29 6 -84.5t6 -83.5q2 0 6 -1t5 -1q12 8 16 14q28 57 176 330q16 27 93 162.5t122 207.5q81 140 283 543q38 76 81 87q33 8 41 -26q15 -57 -53 -154z" />
    <glyph glyph-name="O" unicode="O" horiz-adv-x="1269" 
d="M-4 422q-3 -3 -9 -8t-10 -9.5t-8 -9.5q29 43 33 144q17 225 152 516q120 253 262 432q71 80 98 104q16 17 26 15t31 -21q-178 -193 -311 -452q-77 -148 -124.5 -272t-65.5 -259q6 3 6 -4q40 57 45 68q108 163 235.5 314.5t290.5 322.5q166 159 285 247q4 2 16.5 11t17 12
t16 10.5t17.5 11t17 10t17.5 10t17 9t18.5 8.5t18 6.5t19 6.5q21 8 84 20q60 3 98.5 -34t46.5 -105q10 -83 -18 -187q-66 -219 -191 -413q-194 -294 -417 -508q-187 -176 -347 -242q-79 -30 -145 -33q-129 9 -180 144q-17 33 -41 135zM63 418q4 -43 5 -47q5 -11 12.5 -31.5
t14.5 -36.5t14 -29q48 -75 149 -61q93 17 219 98q149 104 299 267q213 226 350 469q106 197 138 329q15 78 12 133q-3 49 -24.5 69t-63.5 15q-70 -3 -137 -45q-165 -100 -373 -315q-61 -62 -121.5 -128.5t-127 -145t-110 -131.5t-122.5 -150.5t-113 -138.5q-23 -26 -23 -62
q1 -13 1 -33t1 -26z" />
    <glyph glyph-name="P" unicode="P" horiz-adv-x="1726" 
d="M1069 1341q115 9 139 9q230 14 389 -21q43 -10 101 -35q65 -31 90 -84t2 -114q-13 -51 -74 -115q-78 -78 -221 -164q-286 -170 -633 -233q-192 -35 -305 -25q-26 3 -41 -20q-28 -37 -86 -110t-86 -110q-103 -140 -272 -276q-31 -27 -52 -35q3 4 7.5 11.5t7.5 11.5
q262 337 282 364q11 14 148 189q-16 3 -23 10q-34 26 -37 57.5t25 59.5q61 51 131 59q60 9 86 57q50 74 147.5 215t141.5 205q1 2 6 11t8 18q-20 -4 -52.5 -7.5t-45.5 -6.5q-313 -47 -760 -152q-14 -4 -45 -4q-7 17 -4 22t14 13q8 3 23 8.5t27.5 9.5t25.5 6q267 64 492 109
q67 14 344 57q5 0 9 2l7 3.5t6.5 5.5t4.5 5.5t4 6.5t4 6q32 51 90 148t67 112q14 18 33 53q3 2 7 6.5t8 7t8 3.5q11 4 20 -2q12 -8 8 -21q0 -9 -12 -33q-47 -89 -158 -274q0 -4 -6 -19zM582 623q52 -6 141 2q245 31 465 116q249 98 426 236q79 62 110 129q50 103 -75 149
q-4 2 -19 7q-112 34 -225 34q-51 0 -158 -3t-162 -3q-52 0 -79 -49q-168 -277 -334 -500q-26 -30 -90 -118zM551 696l-6 6q-58 -24 -74 -55q10 -6 31 -18q11 19 49 67z" />
    <glyph glyph-name="Q" unicode="Q" horiz-adv-x="1243" 
d="M1298 1356q-20 20 -24 28q-39 73 -131 76q-71 3 -140.5 -14t-158.5 -51q-245 -94 -486 -342q-146 -150 -217 -279q-78 -146 -71 -258q1 -70 44 -113.5t113 -48.5q83 -5 176 27q28 12 25 47q-3 80 25 188q44 150 139 273q113 152 256 250q35 25 55 32q35 20 60 27
q75 17 115.5 -17t33.5 -110q-10 -83 -63 -184q-71 -144 -234 -303q-141 -131 -285 -209q-21 -10 -24 -21t4 -32q44 -146 217 -191q99 -28 277 -16q55 6 163 21t164 22q-79 -45 -153 -70q-234 -70 -455 -22q-214 50 -277 239q0 4 -4 12q-1 1 -2.5 4t-3.5 5q-21 -4 -28 -7
q-96 -28 -168 -28q-103 5 -166 67t-66 166q-3 121 74 267q79 150 258 329q185 181 348 266q219 117 406 130q81 7 137 -19q57 -23 74 -76q14 -41 -7 -65zM494 426q35 14 43 20q157 90 284 230q157 164 211 323q17 49 17 86q4 36 -13 50.5t-53 5.5q-29 -9 -86 -39
q-88 -57 -205 -184q-158 -180 -192 -375q-12 -73 -6 -117z" />
    <glyph glyph-name="R" unicode="R" horiz-adv-x="1587" 
d="M756 1270q-38 -5 -64 -15q-213 -56 -348 -114q-47 -22 -160 -84q-24 -19 -39 -8q-8 6 -4 19t17 26q36 29 65 45q133 74 324 131q43 14 123 35.5t108 29.5q36 11 47 37q17 26 51.5 79.5t51.5 80.5q1 6 5 12t5 8q10 14 15.5 17.5t19.5 -2.5q13 -7 8 -33q-5 -13 -18.5 -37.5
t-18.5 -36.5q-6 -11 -25 -44t-30 -54q11 2 24.5 4t16.5 2q237 47 407 45q52 0 162 -16q38 -8 84 -35q42 -25 60.5 -66.5t7.5 -89.5q-10 -61 -64 -129q-72 -86 -194 -168q-207 -145 -533 -245q-187 -56 -313 -70q-21 -2 -60.5 -4t-60.5 -4q10 -29 10 -31q52 -114 182 -266
q307 -357 709 -527q147 -66 340 -86q28 -4 59.5 -6t68 -3.5t56.5 -2.5q17 0 25 -4q-38 -21 -109 -29q-188 -33 -407 52q-324 120 -576 346q-204 184 -323 362q-15 25 -43 76t-43 76q-8 21 -15 32q-9 -12 -56 -74t-61.5 -81t-55 -69.5t-65 -77t-61 -63.5t-71.5 -67
q41 76 90 150t124.5 177.5t102.5 141.5q-5 5 -13.5 12t-12.5 11q-2 3 -12.5 13.5t-14.5 17.5q-8 15 -5.5 30t13.5 23q21 12 47 -14q12 -16 23 -27q1 1 3.5 6l3 6t3.5 5.5t4 5t4 4.5t4.5 3.5t5.5 2t6 1t7 -0.5q10 0 16 18q277 403 352 514q2 3 6.5 12t8.5 15zM420 653
q58 -9 149 6q211 34 486 140q244 100 420 256q78 67 108 139q17 44 2.5 79t-57.5 50q-63 19 -117 25q-203 16 -524 -45q-41 -6 -64 -39l-389 -582q-2 -4 -6.5 -13.5t-7.5 -15.5z" />
    <glyph glyph-name="S" unicode="S" horiz-adv-x="1460" 
d="M508 633q-22 2 -67 5t-68 5q-112 8 -172 4q-61 -6 -111 -41q-61 -40 -37 -110q11 -37 60 -90q94 -97 254 -170q193 -84 397 -72q86 3 156 35q6 0 8 2q72 35 94.5 84.5t11.5 122.5q-12 81 -55 151q-17 28 -62 98.5t-69 110.5q-37 58 -53 85t-39.5 77t-32.5 94
q-30 131 61 225q48 50 129 90q207 93 400 82q48 0 78 -12q96 -31 102 -131q6 -75 -35 -141q-51 -78 -80 -105q-80 -85 -176 -172q-33 -33 -59 -33q-1 10 -1 12t6 9l5 6q135 135 170 174q45 52 96 135q31 51 25 107q-3 82 -78 94q-46 12 -92 12q-207 -6 -377 -102
q-30 -16 -63 -45q-89 -77 -62 -195q16 -76 66 -155q23 -38 68 -107.5t65 -101.5q77 -118 102 -213q14 -41 17 -80q12 -142 -119 -215q-87 -48 -219 -51q-327 -12 -592 182q-85 64 -129 131q-53 76 -31.5 146.5t109.5 105.5q82 35 213 24q91 -6 170 -49l18 -12q0 -4 -2 -6z
" />
    <glyph glyph-name="T" unicode="T" horiz-adv-x="970" 
d="M137 53q7 18 18 35t26.5 38t23.5 34q213 352 370 604q210 337 373 553q1 2 10.5 15.5t14.5 21.5q-12 4 -15 4q-385 4 -583 10q-61 1 -179 -5t-178 -5q-53 -2 -57 23q-3 21 28 33q16 7 36 7q68 -1 204.5 -4t202.5 -4q181 -6 359 -6q132 -4 194 -4q29 -3 47 18q12 24 31 39
q16 12 31 4q6 -3 6.5 -11.5t-4.5 -14.5q-6 -14 -17 -31q10 -4 25 -4q91 0 274.5 1t274.5 1q65 1 210.5 10.5t221.5 9.5q50 0 71.5 -17t2 -35t-71.5 -21q-56 -1 -168 2.5t-158 3.5h-694q-25 0 -43 -25q-28 -42 -123.5 -182t-146.5 -219q-83 -128 -232.5 -367t-185.5 -295
q-26 -41 -71.5 -132t-67.5 -128q-13 -20 -36.5 -24t-32.5 12.5t9 54.5z" />
    <glyph glyph-name="U" unicode="U" horiz-adv-x="1402" 
d="M688 1489q3 -4 3.5 -9t0.5 -8t-2.5 -8t-3.5 -6.5t-6 -6.5l-4 -5q-75 -109 -92 -131q-138 -192 -258 -404q-45 -79 -126 -232t-96 -181q-71 -143 -94 -256q-11 -48 -6 -76q3 -75 68 -60q49 3 96 29q92 46 244 168q380 321 698 694q80 94 224.5 272.5t176.5 217.5
q11 19 33 35q21 4 37 -2q7 -14 4 -33q-2 -6 -4.5 -12.5t-5.5 -13t-4 -9.5q-185 -277 -406 -704q-183 -358 -254 -560q-60 -172 -65 -290q0 -41 -14 -39q-16 2 -28 35q-6 17 -5 30q0 68 10 101q25 115 74 241q124 323 379 778q3 6 20 41t23 52l-9 -6q-8 -6 -10 -11
q-213 -248 -313 -354q-154 -165 -359 -356q-33 -31 -75.5 -67t-66.5 -55.5t-82.5 -65.5t-70.5 -56q-105 -81 -174 -103q-54 -14 -67 -18q-60 -6 -92.5 26t-34.5 95q0 75 33 166q44 147 155 352q56 104 244 418q96 164 250 346q9 13 14 20t17 14.5t24 6.5z" />
    <glyph glyph-name="V" unicode="V" horiz-adv-x="1036" 
d="M551 1303q-6 -11 -38.5 -67t-49.5 -87q-104 -180 -201 -401q-119 -255 -188 -455q-22 -63 -39 -131q-4 -12 -4 -21q27 31 30 39q304 441 797 903q223 214 481 371q107 65 187 94q50 15 90 6q34 -8 2 -27q-15 -9 -45 -20q-138 -42 -305 -159q-302 -200 -666 -586
q-16 -18 -91.5 -102t-105.5 -119t-84 -99t-94 -118q-111 -152 -180 -258q-18 -21 -33 -39q-19 -17 -36 -12t-17 28q-2 21 6 72q19 94 84 264q149 368 295 657q97 184 180 297q42 47 41 18q-1 -19 -16 -48z" />
    <glyph glyph-name="W" unicode="W" horiz-adv-x="2560" 
d="M1575 1284q-166 -71 -215 -88q-230 -84 -475 -160q-277 -87 -432 -131q-62 -14 -183 -41t-182 -41q-27 -8 -82 -8q-39 -7 -55 39q4 2 11 7t13 8t11 3q186 25 372 76t439 135q183 52 563 185q65 25 217 94q15 10 47 14q28 3 39.5 -15.5t-0.5 -49.5q-2 -14 -6.5 -26.5
t-12 -27.5t-10.5 -24q-96 -174 -213 -397q-192 -393 -252 -519q-17 -37 -49 -112.5t-49 -112.5q-5 -22 -12 -47q1 -2 4.5 -4t3.5 -4q28 20 45 37q204 230 229 260q35 44 474 608q40 49 119.5 146.5t119.5 146.5q24 27 43 41q32 26 54.5 12t25.5 -61q0 -15 -10 -82
q-34 -225 -74 -440q-32 -205 -49 -351q-8 -21 2 -41q1 2 31 56q254 456 270 485q188 324 375 547q86 102 133 149q18 24 49 31q22 0 27 -10q3 -20 0 -37q-28 -40 -33 -45q-116 -120 -156 -172q-173 -209 -352 -526q-44 -76 -94.5 -165.5t-110 -197.5t-94.5 -170
q-9 -18 -57 -92q-23 -37 -54 -25q-26 14 -22 66q7 59 27 194q1 6 118 738q0 1 4 49q-34 -30 -43 -43q-38 -48 -233 -293q-32 -41 -135 -176t-152 -198t-131.5 -164.5t-152.5 -180.5q-66 -77 -144 -149q-19 -19 -65 -41q-30 -8 -48.5 11.5t-15.5 55.5q2 24 19 82
q19 42 62 145.5t67 157.5q167 356 415 824q8 10 31 57q-4 4 -6 8z" />
    <glyph glyph-name="X" unicode="X" horiz-adv-x="1597" 
d="M901 1298q-42 -47 -82 -110q-11 -16 -12 -17q-13 -9 -19 -6q-8 8 -8 17q0 4 1.5 8t5 9t4.5 7q55 90 88 135q16 23 34 33q19 14 36 6.5t18 -30.5q2 -17 -6 -50q-9 -41 -29 -121.5t-29 -121.5q-4 -25 -11.5 -74t-10.5 -70q1 0 3.5 -1t4.5 -1q4 3 12 11.5t14 11.5
q248 237 474 377q145 89 256 116q56 16 110 1q27 -7 25 -17q-3 -16 -76 -25q-112 -15 -250 -98q-228 -135 -422 -317q-28 -25 -75.5 -70t-63.5 -59q-19 -16 -19 -41q-7 -305 103 -522q120 -238 362 -342q114 -44 132 -54q38 -23 -5 -24q-156 5 -309 121q-219 172 -293 442
q-43 159 -43 307q0 17 -2 21q0 4 -4 10q-19 -19 -29 -27q-306 -312 -309 -315q-187 -187 -414 -367q-122 -102 -305 -246q-23 -18 -143 -92q-44 -23 -86 -20q-12 0 -20 3.5t-7 14.5q0 5 6.5 13t12.5 8q17 4 32.5 9t32.5 13t29 13.5t30.5 17.5t27 17.5t28.5 20.5l26 19.5
t28 22t26 20.5q351 289 446 371q170 147 484 473q10 11 44 45.5t52 54.5q14 11 18 37q11 146 78 406q2 6 2 18q2 2 -4 8z" />
    <glyph glyph-name="Y" unicode="Y" horiz-adv-x="1705" 
d="M-37 645q0 24 29 53q86 86 143 136q278 240 512 411q64 50 195 135q48 27 86 37q42 11 67.5 -8t24.5 -63q-2 -46 -21 -119q-54 -208 -90 -338q-28 -126 -26 -189q0 -16 2 -24q4 -23 16 -33t35 -12q39 -2 111 35q89 50 120 73q182 126 400 355q33 36 186 196q26 26 39 31
q42 31 41 5t-25 -56q-79 -89 -196 -226q-194 -233 -314 -401q-217 -304 -378 -580q-167 -294 -202 -309q-9 -4 -4 17q18 76 135 278q34 59 71 119q216 354 426 625q11 22 12 28q-68 -54 -119 -92q-125 -96 -223 -135q-34 -11 -74 -14q-42 -4 -71.5 21.5t-34.5 68.5
q-8 75 12 161q39 164 72 287q0 2 47 185q4 33 2 49q0 29 -29 20q-17 -5 -43 -16q-75 -35 -195 -125q-254 -188 -532 -426q-28 -26 -84 -75.5t-84 -74.5q-22 -22 -39 -10z" />
    <glyph glyph-name="Z" unicode="Z" horiz-adv-x="1808" 
d="M1769 1333q-22 -1 -68.5 -3t-68.5 -3q-37 -3 -110.5 -8t-110.5 -8q-23 -1 -336 -23q-57 -3 -170.5 -11t-171.5 -11q-20 0 -41 6q-21 3 -18 28q1 0 14 3.5t19 3.5q480 41 555 47q101 8 319 16q82 6 246 14q22 4 33 -4q25 -8 28 -24q2 -6 -3.5 -17.5t-12.5 -15.5
q-3 -4 -8 -8t-8 -6t-11.5 -6t-11.5 -5q-190 -83 -225 -100q-170 -82 -336 -174q-244 -134 -604 -397q-267 -192 -527 -459q-36 -40 -55 -59q-18 -24 -23 -31q32 -7 68 0q29 3 120.5 14.5t139.5 16.5q466 54 518 59q236 25 508 41q264 18 531 0q75 -8 225 -35q32 -6 65 -22
q31 -9 37 -41q-19 -10 -53 -2q-134 28 -207 38q-70 9 -182 13q-92 4 -277 4q-190 -8 -294 -14q-97 -6 -355 -33q-86 -8 -426 -47q-208 -26 -385 -45q-27 -3 -49 2q-31 3 -41.5 23.5t8.5 43.5q51 66 86 101q254 272 654 557q278 199 530 340q219 120 424 206q24 8 61 29v6z
" />
    <glyph glyph-name="bracketleft" unicode="[" horiz-adv-x="409" 
d="M-209 186q54 -4 62 -4q25 0 77 1t78 1q23 0 29.5 -2.5t25.5 -17.5q-5 -21 -43 -35q-28 -8 -45 -8h-170q-20 0 -30 2q-66 18 -35 82q53 119 110 219l457 805q26 47 39.5 71t15 26.5t3 4t3 4t15 26.5t39.5 71l33 59q19 47 75 47h140q19 0 32 -10q5 -3 7.5 -11t-0.5 -14
q0 -13 -19 -18q-8 -4 -33 -4q-16 1 -44 1.5t-51.5 1.5t-45.5 3v-2q-40 -76 -128.5 -228t-113.5 -198l-270 -475l-180 -330q-1 -1 -33 -68z" />
    <glyph glyph-name="backslash" unicode="\" horiz-adv-x="841" 
d="M125 1614l47 -123q125 -330 248 -682q158 -427 223 -631q16 -49 47 -186q6 -10 3 -24t-25 -19q-1 2 -25 43l-137 420l-281 762q-21 59 -77.5 200.5t-77.5 200.5q-15 46 3.5 61.5t51.5 -22.5z" />
    <glyph glyph-name="bracketright" unicode="]" horiz-adv-x="546" 
d="M664 1481q-108 -11 -160 -13h-70q-17 0 -31 7q-7 21 -6 24q3 12 23 17l72 6q126 12 182 20q50 6 61.5 -11t-12.5 -63q-7 -14 -139 -249q-27 -50 -400 -711l-194 -346q-21 -43 -70 -43q-41 2 -121 2q-32 0 -32 26q0 13 11.5 22t24.5 11q10 2 37 2q5 0 16.5 -1t16.5 -1
q45 -2 56.5 4t35.5 47q262 476 381 682q38 69 56.5 102.5t26.5 47.5t14 24t27.5 47t57.5 101l111 192q8 22 25 54z" />
    <glyph glyph-name="asciicircum" unicode="^" horiz-adv-x="614" 
d="M385 1239q-15 28 6 53q10 15 30.5 40.5t27.5 35.5q49 64 96 129q7 10 22 26.5t17 18.5q22 18 37 6q14 -11 14 -32q2 -11 -8 -31q0 -2 -49 -187q-6 -25 -15 -36.5t-18 -6.5q-29 11 -19 50l21 96q5 14 2 29q-47 -56 -90 -111q-34 -45 -39 -51q-4 -4 -9 -8.5t-13 -10.5
t-13 -10z" />
    <glyph glyph-name="underscore" unicode="_" horiz-adv-x="833" 
d="M500 526l-394 -10q-14 0 -44 -1t-46 -1q-29 0 -39 4q-7 3 -11.5 10.5t-2.5 12.5q0 11 14 22q5 2 18.5 4t14.5 2q210 5 496 19q67 4 74 -21q5 -18 -30 -31q-21 -8 -50 -10z" />
    <glyph glyph-name="grave" unicode="`" horiz-adv-x="555" 
d="M375 1247q-2 -1 -5 -3t-5 -3q-99 44 -164 168q-14 20 4 41q2 -1 6 -1.5t6.5 -1t3.5 -1.5q21 -26 65.5 -78t65.5 -78q9 -11 23 -43z" />
    <glyph glyph-name="a" unicode="a" horiz-adv-x="540" 
d="M559 725q-46 -43 -126 -71q-112 -40 -142 16q-8 18 -8 41q0 17 8 71q-20 -12 -64 -40.5t-77.5 -48t-65.5 -36.5q-15 -11 -57 -16q-46 -7 -64 27q-18 32 6 67q19 26 39 43q115 97 254 86q25 -4 43 17q9 9 27.5 28.5t27.5 28.5q13 18 23 20q18 4 31 -2q11 -14 8 -30
q-2 -17 -16 -41q-37 -82 -39 -85q-47 -122 22 -114q8 1 19 4q15 4 32.5 12t41 20.5t36.5 18.5q3 1 10 5t13.5 6.5t11.5 1.5q12 -3 15 -13t-9 -16zM20 700q58 10 123.5 45.5t108.5 77.5q-65 -5 -131.5 -38.5t-100.5 -84.5z" />
    <glyph glyph-name="b" unicode="b" horiz-adv-x="526" 
d="M4 647q8 7 40.5 37.5t51.5 48.5q82 82 191 150q20 11 43 20q43 14 67 -8q25 -23 15 -66q-2 -6 -9 -25t-10 -30q22 -4 31 -8h72q20 0 32 -2q28 -7 25 -35q-7 -20 -33 -20q-13 1 -37.5 1.5t-44.5 1.5t-37 3q-53 3 -88 -35q-52 -68 -127 -92q-79 -25 -94 55q0 2 -2.5 9.5
t-3.5 13.5q-29 -27 -80 -78l-90 -90q-20 -16 -39 -6q-23 13 -8 36q13 39 45 97q75 132 104 186q2 4 7 11.5t6.5 10.5t3 11.5t-3.5 13.5q0 15 8 19q19 13 36.5 32t27 33t27 40.5t24.5 37.5q148 217 254 336q44 48 88 86q20 17 39 24q23 4 38 -8q11 -4 14.5 -16.5t-1.5 -22.5
q-33 -71 -51 -98q-82 -105 -166 -195q-27 -31 -57 -61.5t-73 -72.5t-61 -60q-38 -41 -67 -86q-20 -31 -55.5 -90.5t-47.5 -79.5q-2 -4 -4 -12.5t-4 -12.5zM209 762q50 4 78 4q32 5 51.5 30.5t15.5 59.5q-70 -19 -145 -94zM254 705q-45 2 -71.5 -15t-26.5 -47q28 2 55.5 19
t42.5 43zM416 1274l-24 -28q-24 -27 -50.5 -58.5t-54.5 -65.5t-43.5 -57t-10.5 -25q18 20 78 86q245 272 236 272q-7 0 -131 -124z" />
    <glyph glyph-name="c" unicode="c" horiz-adv-x="458" 
d="M438 707q-11 -8 -28 -15q-164 -71 -279 -78q-31 -8 -74 2q-48 12 -66 48t3 86q2 4 6 13t6 13q81 108 197 133q36 11 78 -2q31 -11 39.5 -42t-13.5 -56q-15 -10 -24 -10q-2 0 -4 3.5t-4.5 8t-4.5 6.5q-5 33 -15 40.5t-40 0.5q-89 -24 -156 -108q-7 -9 -14 -27
q-12 -41 27 -49q29 -9 63 -2q104 8 205 55q9 3 24.5 10t28.5 11.5t25 7.5q51 12 57 -5.5t-37 -43.5z" />
    <glyph glyph-name="d" unicode="d" horiz-adv-x="579" 
d="M133 391q6 3 18 7.5t16.5 7t10.5 6.5t10 8q104 77 162 131q19 17 59.5 52.5t73.5 65t58 54.5q47 42 64.5 28.5t-32.5 -63.5q-74 -75 -115 -115.5t-108.5 -99t-128.5 -100.5q-35 -23 -61 -31q-36 -12 -61 6.5t-19 54.5q11 63 26 95q78 164 121 250q9 22 9 30
q-7 -6 -18.5 -15t-14.5 -11q-68 -55 -133 -103q-33 -14 -47 -16q-26 -4 -43 10t-15 39q1 13 21 57q55 73 149 105q31 14 62 14q41 5 79 43q79 88 222 305q11 22 18 29q30 40 53 27q27 -15 0 -64q-33 -46 -51 -78q-210 -323 -330 -569q-43 -82 -55 -160zM33 698
q38 15 68.5 38t43.5 48q-79 -23 -112 -86z" />
    <glyph glyph-name="e" unicode="e" horiz-adv-x="438" 
d="M408 752q12 6 36 14q25 3 35 -14q10 -24 -12 -35q-146 -74 -322 -84q-18 -1 -33.5 -0.5t-35 2.5t-33.5 7t-28.5 13t-21 21t-10 30.5t4.5 41.5q14 40 27 56.5t46 35.5q64 30 154 30q35 -3 41 -34q7 -34 -23 -50q-37 -22 -90 -38q-37 -9 -80 -9q-29 0 -33.5 -13.5
t11.5 -27.5q19 -19 71.5 -21t110.5 8t111 29t74 38zM201 811q17 21 -7 19q-42 -3 -122 -49q-13 -7 -25 -15q33 -3 82 10t72 35z" />
    <glyph glyph-name="f" unicode="f" horiz-adv-x="585" 
d="M197 817q80 74 136.5 141.5t96.5 149.5q-39 -15 -142.5 -138.5t-142.5 -199.5q176 -30 430 10q14 2 23 -5t10 -30q1 -12 -7 -17t-21 -5q-137 10 -234 -12q10 -103 -67 -217q-133 -193 -316 -306q-23 -11 -72 -26q-37 -6 -59 22t-16 72q12 46 22 66q22 46 60.5 125.5
t68 141t51.5 107.5q-25 1 -38 20.5t-3.5 39.5t41.5 22q23 3 35.5 1t21.5 3.5t21 26.5q104 170 266 332q27 27 46 39q6 5 28 18q25 8 44.5 -11.5t15.5 -51.5q-7 -47 -23 -74q-98 -166 -215 -252q-32 -28 -61 8zM293 709q-39 -7 -80 -4t-80.5 0t-52.5 -19q-10 -13 -27 -45.5
t-35 -71.5t-22 -47q-9 -20 -51 -112.5t-66 -141.5q-2 -5 -4 -16.5t-2 -13.5q0 -5 6 -11q9 4 30 10.5t30 10.5q183 115 327 340q9 17 18 55t9 66z" />
    <glyph glyph-name="g" unicode="g" horiz-adv-x="610" 
d="M227 631l52 16q76 27 145 49.5t160 55.5q20 8 28 6q25 -5 35 -17q6 -10 2.5 -19.5t-12.5 -14.5q-34 -19 -45 -21q-63 -21 -87.5 -21.5t-88.5 -23.5q-35 -11 -101.5 -35t-93.5 -33q-27 -12 -57 -65q-141 -229 -314 -338q-153 -94 -276 -104q-40 -3 -74 6q-39 8 -53 37
t6 63q21 45 60 78q27 22 76 57.5t65 48.5q61 40 141 81t127 61.5t146 62.5q88 27 127 103q20 30 32.5 63.5t17 51.5t5.5 18q-18 -8 -65.5 -41t-63.5 -41q-42 -22 -86 -33q-29 -15 -58 14q-17 29 5 58q24 39 55 61q68 62 166 88q16 4 51 4q34 6 35 6t5 1t5.5 1.5t5 1.5t5.5 1
h5t4.5 -0.5t4 -1.5t4 -3t2.5 -4q18 -15 4 -47q-67 -153 -107 -231zM-387 113q144 40 287.5 162t216.5 257q-105 -29 -267.5 -123t-259.5 -173q-74 -53 -84 -95q-8 -33 36 -36q27 -2 71 8zM63 760q-15 -29 8 -26q39 5 123 69q32 25 56 49q-42 0 -101 -27.5t-86 -64.5z" />
    <glyph glyph-name="h" unicode="h" horiz-adv-x="561" 
d="M317 834q-42 -21 -45 -23q-17 -10 -32.5 -21t-37 -30t-28 -25t-34.5 -33l-29 -28q-18 -17 -50.5 -48t-58.5 -56t-49 -48q-26 -21 -33 -22q-28 -8 -37 4q-6 5 -9 16t1 19q2 21 21 55q174 323 329 549q10 15 68.5 102.5t91 135t82 113t82.5 101.5q22 25 45 6q19 -16 10 -35
q-3 -6 -8 -10q-210 -257 -504 -731q-57 -93 -102 -176q16 0 33 21q20 18 59 55t59 55q47 42 111 86q7 7 37 17q46 15 69 -4t19 -70q-1 -12 -6 -34.5t-6 -29.5q-7 -22 -13 -71q13 6 33.5 12t24.5 8q16 8 55 31t61 33q40 15 56 8.5t8 -26.5t-35 -33q-30 -18 -88.5 -46.5
t-75.5 -37.5q-14 -7 -35 -7q-28 -1 -43.5 13.5t-15.5 42.5t12 94z" />
    <glyph glyph-name="i" unicode="i" horiz-adv-x="274" 
d="M285 702q-113 -63 -189 -81q-43 -4 -65 0q-27 4 -41.5 26t-9.5 49q0 47 16 68q13 20 41 78t47 84q17 22 43 10q27 -14 19 -44q-3 -13 -13 -26q-8 -13 -37 -58t-45 -71q-44 -89 18 -87q52 2 132 54q27 18 39 31q34 36 57 19q17 -13 6 -34q-6 -11 -18 -18zM236 1090
q17 0 25 -10.5t5 -24.5q-4 -15 -22.5 -34.5t-38.5 -31.5q-29 -18 -39.5 -12t-3.5 43q3 28 22 49t52 21z" />
    <glyph glyph-name="j" unicode="j" horiz-adv-x="452" 
d="M29 606q9 4 27.5 11.5t27.5 11.5q174 89 326 133q21 9 41 12q28 4 36 -18q11 -25 -18 -43q-15 -5 -25 -11q-228 -64 -477 -208q-9 -5 -18.5 -13t-14 -13t-15.5 -17.5t-13 -14.5q-137 -196 -234 -295q-137 -137 -237 -188q-29 -18 -51 -23q-41 -10 -65 13t-15 63
q15 41 43 72q52 65 127 137q181 170 350 268q80 48 145 164q2 5 8 39q0 64 60 131q13 16 30 19t27 -7q13 -6 16.5 -21t-4.5 -34q-10 -23 -32 -65.5t-31 -63.5q-3 -5 -18 -35zM-182 403q-11 1 -29.5 -6.5t-41.5 -23.5t-45 -32.5t-49 -40t-45 -39t-40.5 -36.5t-28.5 -26
q-44 -39 -162 -162q-2 -3 -6.5 -10t-7 -11.5t-4 -13.5t-0.5 -20q137 70 243.5 173t215.5 248zM158 997q20 5 35 2t20 -20q6 -13 0 -26t-20 -21q-30 -20 -37 -21q-23 -3 -45 15q-9 11 -6 26t14 23q13 15 39 22z" />
    <glyph glyph-name="k" unicode="k" horiz-adv-x="585" 
d="M33 834q-17 15 -20 22.5t0.5 12t21.5 18.5q53 36 84 90q72 109 188 278q68 92 135 144q14 10 50 28q27 12 45 -6q21 -21 8 -43q-26 -59 -43 -84q-137 -188 -322 -350q-33 -33 -45 -57q-5 -8 -108 -190t-136 -244q-4 -7 48 47t111.5 119.5t72.5 85.5q-6 12 -6 20
q-9 17 -2 29t26 12q23 0 46.5 8.5t33.5 14.5t37 24q24 15 74 44.5t74 45.5q22 15 47 15q13 0 32 -15q14 -17 -4 -35q-15 -18 -35 -28q-24 -15 -50.5 -29.5t-57 -31.5t-47.5 -27q-8 -6 -24.5 -14t-22.5 -11q33 -25 104 -29q74 -5 156 35q9 4 28.5 13.5t28.5 13.5t45 8
q-6 -41 -41 -61q-172 -108 -350 -31q-25 13 -49 -6q-187 -171 -299 -318q-16 -21 -25 -24q-21 -7 -30 0q-11 4 -11 26q-2 5 -2 7t2.5 8t3.5 8q10 21 55 113.5t68 142.5q21 39 95 176zM223 1032q131 123 220 241q58 77 34 72l-6 -2q-36 -18 -122 -128t-126 -183z" />
    <glyph glyph-name="l" unicode="l" horiz-adv-x="329" 
d="M33 449q37 39 125 136t127 136q50 51 67 44q18 -7 -23 -66l-12 -17q-24 -32 -55.5 -66t-55 -57t-63 -60t-57.5 -55q-14 -14 -70 -53q-22 -13 -39 -18q-38 -10 -61.5 8t-26.5 57q-3 30 7 64q21 114 116 295q12 28 29 51q20 35 17 49q-1 11 -11 21q6 12 10 16q18 8 34 22.5
t25 26.5t24 33.5t22 30.5q132 188 196 262q27 31 54 59q26 26 53 47q11 14 37 25q36 16 57 0q27 -24 8 -58q-22 -48 -47 -86q-111 -145 -299 -307q-59 -56 -90 -100q-104 -186 -149 -297q-23 -79 -29 -107q-8 -34 -2.5 -49t21.5 -14.5t32 8.5t29 19zM467 1335
q-55 -53 -148.5 -163.5t-101.5 -149.5q83 79 200 212q118 133 80 119q-10 -4 -30 -18z" />
    <glyph glyph-name="m" unicode="m" horiz-adv-x="878" 
d="M285 768q19 -9 53 8q122 70 168 94q47 25 74 29q64 13 73 -49q9 -36 2 -78q-4 -44 15.5 -57.5t60.5 -1.5q22 5 67 23.5t54 21.5q42 13 51 -2q8 -8 1 -23.5t-30 -23.5q-93 -53 -163 -60q-110 -12 -113 99q0 8 1 22.5t1 22.5v16.5v14.5v12t-0.5 10.5t-2 7.5t-4 4.5t-6 1.5
t-8.5 -1.5t-11.5 -5.5t-14.5 -9q-28 -15 -89.5 -55.5t-88.5 -55.5q-25 -17 -62 -24q-63 -18 -84 47q-4 11 -7.5 24t-5 18t-6 8t-12 -0.5t-22.5 -14.5q-28 -21 -83.5 -77.5t-80.5 -76.5q-30 -25 -37 -29q-19 -6 -30 3.5t-8 29.5q3 16 14 33q67 131 96 184q5 20 12 25
q18 13 29 8q5 -2 9.5 -10t4.5 -15q-2 -8 -7.5 -21.5t-6.5 -17.5q-1 -3 -10.5 -21t-16 -31t-13 -29t-7.5 -25q11 7 46 44.5t48 45.5q18 13 49 29q70 28 95 -45q1 -4 3 -13.5t3 -13.5z" />
    <glyph glyph-name="n" unicode="n" horiz-adv-x="645" 
d="M360 612q25 9 60 25.5t61.5 30t67.5 35.5t57 30q56 25 73 7q14 -16 -15 -39q-13 -11 -31 -19q-105 -49 -258 -111q-45 -19 -84 -4q-38 18 -29 70q3 14 12.5 36t12.5 34q25 60 22 73q-6 20 -61 2q-107 -60 -135 -77q-22 -15 -62.5 -46t-60.5 -45q-15 -15 -23 -18
q-30 -15 -45 0q-20 20 0 43q35 51 64 98q11 14 75 109q12 15 15 24q33 45 51 27q17 -11 -12 -59q-40 -64 -56 -86q-4 -6 -29 -34q-39 -45 -36 -45q3 -1 24 17q97 80 197 129q25 13 47 19.5t45.5 7.5t39 -14.5t18.5 -47.5q3 -19 -3 -37.5t-20.5 -44t-19.5 -36.5
q-15 -42 -8.5 -55t46.5 1z" />
    <glyph glyph-name="o" unicode="o" horiz-adv-x="425" 
d="M242 752q15 3 46 7t46 7q12 2 42.5 6t41.5 6q19 0 31 -4q17 -9 14 -26q0 -3 -8.5 -10t-12.5 -7q-44 -10 -75 -12q-24 -5 -75 -13.5t-77 -13.5q-23 -3 -37 -20q-12 -11 -37 -35.5t-35.5 -33.5t-28.5 -20.5t-36 -17.5q-16 -5 -31.5 -5.5t-28 4.5t-22 14.5t-13.5 25.5
t-1 36.5t14.5 49.5t32.5 62q37 58 139 141q45 31 78 33q34 3 52.5 -13t17.5 -49q0 -11 -7.5 -34.5t-9.5 -34.5q-8 -16 -20 -43zM45 741q-49 -59 -30 -97q14 -27 48 -17q38 11 62 63q-70 0 -80 51zM219 877q-69 -22 -106 -84q-12 -20 6 -33q12 -13 34 -11t29 19q23 34 37 76
q2 2 2 6.5t-1 12.5t-1 14z" />
    <glyph glyph-name="p" unicode="p" horiz-adv-x="612" 
d="M66 668q-121 -114 -205.5 -232t-188.5 -297q-5 -5 -13.5 -17t-14.5 -18q-19 -19 -41 -4q-19 14 -11 39q8 18 19 33q53 72 112 161t95.5 147.5t105.5 170t96 154.5q16 26 84 135q15 27 43 27q5 -5 7.5 -9.5t2 -10.5t-1.5 -10t-4 -11.5t-4 -10.5q-4 -7 -24 -43t-31 -57
q-14 -17 -20 -39l4 -4q6 6 17.5 16.5t17.5 16.5q17 15 70.5 62.5t84.5 72.5q36 25 101 47q15 10 49 6t53.5 -25.5t19.5 -52.5q0 -45 -38 -104q-12 -12 -27 -33q12 -2 29 -2q17 -1 51.5 -2t52.5 -2q37 -4 53 -12q28 -9 21 -39q-8 -23 -35 -16q-108 22 -229 0q-31 -2 -74 -21
q-30 -11 -86 -33t-62 -24q-56 -17 -79 41zM109 715q157 40 167 43q77 22 140 114q11 22 12 27q6 40 -33 37q-18 -2 -61 -21q-33 -17 -67.5 -44t-55 -46.5t-57.5 -56.5q-6 -8 -21 -24.5t-24 -28.5z" />
    <glyph glyph-name="q" unicode="q" horiz-adv-x="460" 
d="M246 795q-19 -10 -55.5 -35.5t-49.5 -32.5q-64 -33 -110 -33q-29 0 -41.5 21t-1.5 49l5.5 11t9 15.5t9.5 10.5q110 117 250 125q23 0 33 -2l33 -11q4 3 13 12.5t15 12.5q26 13 41 -2q19 -16 0 -43q-2 -4 -6 -8q-96 -100 -207 -289q-191 -312 -288 -479q-26 -38 -50 -94
q-46 -94 -14 -91q10 1 27 13q39 23 114 76.5t105 72.5q49 31 107 41q35 5 31 -9q-4 -15 -54 -48q-147 -92 -291 -176q-14 -9 -41 -17q-41 -12 -63.5 10t-10.5 62q23 72 37 94q147 265 207 365q30 50 88.5 142t81.5 130q43 53 76 107zM98 748q74 33 191 135q-125 -6 -211 -92
q-15 -15 -23 -27t-7 -18t7 -8t17 0.5t26 9.5z" />
    <glyph glyph-name="r" unicode="r" horiz-adv-x="440" 
d="M348 686q-12 1 -22 4.5t-17.5 7.5t-14 13t-10 14t-7.5 18t-5.5 17t-5 19.5t-4.5 17.5q-6 13 -13.5 20t-17 8t-18.5 0.5t-21 -7.5t-20.5 -12t-21 -15.5t-18 -15.5t-16.5 -15.5t-12 -11.5q-69 -58 -110 -134q-14 -31 -43 -39q-29 -1 -33 27q0 5 2 10.5t5.5 11.5t4.5 9
q25 46 75.5 139t76.5 139q10 20 27 37q11 11 22 4q13 -9 10 -22q0 -15 -8 -35q-33 -64 -49 -109q12 9 20 17q11 8 35.5 29t38.5 30q25 22 55 25q62 15 80 -45q4 -12 8.5 -35t4.5 -25q4 -23 14 -29.5t35 -4.5q6 0 21 1t22 1q41 3 45 -17q4 -21 -32 -35q-33 -14 -83 -12z" />
    <glyph glyph-name="s" unicode="s" horiz-adv-x="448" 
d="M172 760q34 31 33 75q0 39 -31 41q-18 1 -45 -14q-24 -14 -45 -37.5t-31 -51.5t15 -48q57 -57 88 -82q13 6 100 40.5t133 61.5q25 15 45 17q28 0 35 -21q-1 -5 -3.5 -8.5t-5 -6.5t-6 -6t-6 -4.5t-7.5 -3.5t-7 -2.5t-7.5 -2.5t-6.5 -2q-19 -8 -87 -32.5t-114 -47
t-63 -47.5q-17 -33 -56 -60q-98 -64 -188 -74q-23 -3 -57 5q-7 1 -13 10t-8 18q-1 4 0.5 8t4.5 6t8.5 5.5t7.5 5.5q106 85 233 127q-3 3 -12.5 10.5t-14.5 13.5q-34 30 -51 52q-49 62 2 120q79 82 170 93q64 9 82 -35q23 -44 -16 -86q-29 -34 -68 -49q-1 1 -4 5t-4 7z
M-72 508q-17 -30 9 -27q40 4 114 59q25 19 45 38q-43 0 -93.5 -18.5t-74.5 -51.5z" />
    <glyph glyph-name="t" unicode="t" horiz-adv-x="360" 
d="M-2 1198q-18 -2 -31.5 -0.5t-20 5t-11 8.5t-4 9.5t0.5 6.5q19 28 80 24q150 -13 285 4q6 3 10 11q30 42 64.5 93.5t77.5 108.5q7 14 19.5 21.5t25.5 -0.5q8 -5 8 -33q-1 -6 -9.5 -17.5t-9.5 -13.5q-31 -42 -51.5 -78t-60.5 -94q89 -15 259.5 -12.5t327.5 19.5
q129 12 164 10q32 -2 42.5 -11t-2 -19.5t-40.5 -16.5q-98 -18 -401 -21.5t-385 2.5q-68 -87 -144 -204t-122 -205q-103 -201 -37 -213q19 -4 53 10q43 17 108.5 59.5t114.5 83.5q5 3 15.5 12.5t17.5 12.5q10 6 15.5 8.5t12.5 2t13 -8.5q14 -23 -12 -45q-37 -33 -124 -88.5
t-157 -79.5q-40 -15 -65 -12t-40 12.5t-19.5 31.5t-3.5 44.5t8 50.5t15 50t17 44q28 68 73 143t107.5 167t81.5 122q-180 -4 -266 -4z" />
    <glyph glyph-name="u" unicode="u" horiz-adv-x="450" 
d="M455 727q-42 -36 -101.5 -53.5t-105.5 -1t-43 72.5q0 3 -0.5 5l-1.5 6l-2 8q-7 -5 -18.5 -13.5t-21 -15.5t-18.5 -12q-10 -6 -27 -18t-31.5 -21.5t-29.5 -15.5q-22 -11 -41 -11q-41 0 -41 41q0 17 7 35q17 45 81 121q23 19 39 8q17 -17 0 -41q-11 -19 -45 -61
q-7 -15 -20 -35q9 5 19.5 8t13.5 4q94 74 141 113q3 2 14 12t19 12q6 4 18 4t19 -4q24 -9 10 -38q-10 -30 -19 -54q-16 -61 22.5 -66.5t82.5 16.5l6 1.5t5 1.5t5 2q5 1 17 6q60 21 60 8q1 -7 -13 -24z" />
    <glyph glyph-name="v" unicode="v" horiz-adv-x="514" 
d="M492 938l-39 -33q-21 -18 -35.5 -49t-7 -57.5t46.5 -26.5h30q37 0 46 -21q7 -18 -18 -26q-4 -1 -9 -2q-31 -8 -70 -8q-91 2 -78 123q-25 -25 -57 -54t-55 -48.5t-61.5 -52t-55.5 -46.5q-31 -28 -82 -53q-38 -17 -62.5 1.5t-17.5 59.5q4 34 29 113q24 73 65 160
q9 22 19 28q9 11 18.5 8t10.5 -16q1 -4 -5 -43l-65 -176q-12 -37 -21 -78q1 -1 3 -2t4 -3t4 -5q4 3 15 9t18.5 11t13.5 11q27 22 80 69t80 70q19 17 98.5 98t109.5 109q25 25 50 3q23 -20 14 -49q-5 -14 -16 -24z" />
    <glyph glyph-name="w" unicode="w" horiz-adv-x="724" 
d="M532 791q-69 -69 -118 -113q-78 -74 -123 -109q-11 -13 -53 -30q-28 -5 -43.5 8.5t-12.5 40.5q6 33 19 71q8 24 8 46q-13 -11 -38 -33.5t-38 -34.5q-53 -47 -108 -84q-16 -16 -54 -23q-23 -5 -38.5 9t-12.5 39q4 33 10 47q15 35 72 147q19 31 56 93.5t55 92.5
q5 10 9 15.5t13 10.5t19 -1q23 -9 4 -51q-72 -122 -123 -215q-37 -73 -58 -117q24 -4 46 18q54 46 172 152q46 37 67 61q8 9 10 13q39 16 56 4q18 -18 6 -53q-33 -64 -35 -68q-7 -15 -47 -96v-21l45 35q37 37 108.5 110.5t108.5 110.5q1 2 4.5 7t6 8t6.5 6t8 4q23 14 34 6
q7 -3 13 -13t4 -18q0 -4 -1 -15.5t-1 -18t3 -15t9 -14.5q45 -49 129 -39q9 2 15.5 -8.5t3.5 -22.5q-2 -18 -31 -18q-64 -2 -109 13.5t-76 62.5z" />
    <glyph glyph-name="x" unicode="x" horiz-adv-x="491" 
d="M188 758q103 76 115 86q21 15 71.5 64t71.5 63q49 34 79 23q25 -9 3 -42q-14 -22 -49 -47q-35 -26 -103.5 -76t-103.5 -75q-8 -6 -31 -24.5t-38 -27.5q-22 -13 -37 -29.5t-22.5 -38t-11 -38t-7 -45t-6.5 -43.5q4 -2 7.5 -3t6.5 -1.5t6.5 0t5.5 0.5t5.5 1.5t5 2.5t5 3
t4.5 2.5t4.5 3.5t4.5 3q78 61 234 187q9 6 26.5 21.5t26.5 21.5q24 24 59 16q3 -39 -24 -57q-50 -45 -189 -162q-22 -18 -67 -48t-58 -40q-4 -4 -12 -8q-47 -22 -78.5 -0.5t-28.5 75.5q4 38 13 76q-10 -7 -24 -15.5t-19 -11.5q-71 -60 -156 -122q-28 -24 -51 -17q1 7 -1 9.5
t1 8t3 7.5t4.5 7t5.5 6l5.5 5.5l5.5 5.5q28 25 82.5 69.5t69.5 57.5q24 22 78 62q18 14 24 33q21 73 39 153q-42 -17 -82 -69q-9 -10 -28 -41q-19 -23 -37 -13q-19 16 -4 39q5 13 16 31q36 36 98 102q3 3 9 7t8 6q32 19 56 6.5t24 -47.5q0 -13 -2 -26.5t-6.5 -32t-6.5 -27.5
q0 -1 -6 -31q1 0 2.5 -3t3.5 -3z" />
    <glyph glyph-name="y" unicode="y" horiz-adv-x="499" 
d="M270 643q29 13 39 21q25 13 76 40t76 41q23 13 43 13q7 0 15.5 -6t12.5 -11q10 -18 -16 -34q-12 -7 -42 -22.5t-46 -25.5q-24 -15 -66.5 -43t-78.5 -51t-68 -43q-15 -10 -29 -25t-23 -27t-22.5 -31.5t-21.5 -30.5q-145 -222 -283 -363q-44 -39 -72 -57q-30 -22 -55 -29
q-24 -5 -39 8t-12 39q0 24 14 49q46 96 156 203q51 49 148 137.5t133 122.5q32 37 43 53q45 72 135 224q-8 0 -15.5 -2.5t-10.5 -4.5t-10 -8l-7 -6q-5 -3 -21 -14.5t-22 -16t-20.5 -14.5t-23.5 -15t-22 -12.5t-25 -12.5t-24 -9q-13 -10 -27 -10q-42 -6 -63.5 15.5
t-11.5 62.5q6 22 32 75q53 85 70 109q24 33 51 6q-2 -3 -7 -16t-11 -19q-22 -43 -72 -129q-2 -6 -7 -22t-11 -29q9 2 19.5 2.5t17.5 1.5t12 4q99 61 108 68q20 15 41.5 33t47.5 40t42 35q32 32 62 17q29 -16 2 -68q-14 -29 -46 -89.5t-48 -92.5q-10 -14 -17 -31zM-23 315
q-69 -56 -142 -138.5t-91 -123.5q43 25 121 113t112 149z" />
    <glyph glyph-name="z" unicode="z" horiz-adv-x="1169" 
d="M477 950q-22 -3 -93 -12t-110 -16q-143 -27 -241 -177q-25 -45 -50 -32q-18 9 -14 34q1 8 6 15q80 160 254 205q84 20 160 28q40 7 166 21q26 4 29 2q24 -8 32 -21q7 -8 4.5 -19.5t-10.5 -19.5q-3 -3 -9 -8t-11 -9t-10 -7q-248 -166 -287 -191q-38 -27 -166 -108
q-5 -3 -8 -19q85 9 114 15q39 4 356.5 28t373.5 31q22 0 40.5 1t39 -7.5t36.5 -26.5q-4 -4 -9 -7.5t-8 -5.5t-10.5 -4t-9 -2.5t-10.5 -2.5t-10 -2q-64 -8 -396.5 -32.5t-381.5 -29.5q-19 -3 -95.5 -14t-119.5 -16q-51 -9 -62 16q-14 32 27 59q58 42 141 95q222 147 322 209
q2 1 10 9t14 11q-1 1 -2 5t-2 5z" />
    <glyph glyph-name="braceleft" unicode="{" horiz-adv-x="550" 
d="M188 852q2 -4 3.5 -10t3.5 -8q39 -100 -35 -218q-25 -43 -76 -122.5t-72 -114.5q-54 -83 -96 -158q-17 -26 -27 -55q-29 -81 43 -115q1 0 8 -4t7.5 -4.5t7 -5t6 -5.5t4.5 -7t2.5 -8.5t-0.5 -10.5q-30 -18 -73 -2q-103 52 -68 152q24 71 68 139q106 166 184 287
q12 18 30 51.5t23 42.5q33 65 6 129q-3 5 -6 12.5t-4 9.5q-15 47 39 72l67 27q134 53 216 172q31 43 81.5 124t63.5 101q71 116 123 162q76 73 168 104q22 5 26 4q19 0 23 -8q0 -4 -2 -8t-5.5 -8.5t-4.5 -7.5q-10 -7 -25 -11q-136 -55 -213 -180q-23 -31 -58.5 -92.5
t-41.5 -71.5q-70 -118 -133 -186q-95 -98 -205 -141q-50 -22 -58 -27z" />
    <glyph glyph-name="bar" unicode="|" horiz-adv-x="638" 
d="M0 -115q119 359 182 539q25 75 72 211.5t65 189.5l154 435q2 5 4.5 11.5t4.5 11t5 7.5q13 17 21 17q5 0 7.5 -1.5t3.5 -4.5t1.5 -5t0 -6.5t-0.5 -5.5q-6 -34 -6 -35q-6 -19 -42.5 -132.5t-57.5 -172.5q-19 -57 -181 -526q-102 -311 -190 -559q-27 -77 -47 -76
q-17 2 -7 58q3 20 11 44z" />
    <glyph glyph-name="braceright" unicode="}" horiz-adv-x="696" 
d="M598 1569l-2 10q10 13 22 14.5t21 -2.5q63 -15 87.5 -65t-3.5 -109q-18 -43 -72 -129q-73 -117 -94 -160q-69 -122 14 -202q21 -23 15.5 -38t-43.5 -32q-134 -60 -201 -190q-53 -99 -139 -283q-59 -121 -133 -219q-90 -128 -234 -150q-16 -4 -29 -4q-21 -3 -35 3t-14 16
q0 23 45 32l43 11q92 14 156 94q80 97 145 237q93 191 127 254q81 159 215 230q9 2 19 10q-2 4 -5 11.5t-5 11.5q-60 104 -4 204q36 67 102 170q7 12 32 52t36 61q52 89 -41 147z" />
    <glyph glyph-name="asciitilde" unicode="~" horiz-adv-x="684" 
d="M489 782q-55 -44 -106 -41q-35 2 -72 39l-20 31q-15 20 -28.5 22.5t-33.5 -10.5q-24 -15 -66 -48t-48 -38q-4 -3 -12 -10.5t-13 -9.5q-12 -9 -22 -2t-7 22q4 20 19 35q58 64 137 107q68 34 115 -31q34 -44 54.5 -46.5t66.5 32.5q31 19 49.5 15t15.5 -25.5t-29 -41.5z" />
    <glyph glyph-name="cent" unicode="&#xa2;" horiz-adv-x="663" 
d="M117 565l-17 6q-53 15 -68.5 48.5t1.5 95.5q23 94 111.5 185t183.5 120q14 3 42.5 6t43.5 6q9 15 63 92q36 45 53 62q19 17 28.5 7t4.5 -28q-2 -5 -10.5 -15t-9.5 -11q-15 -24 -44 -65t-40 -58q6 -10 19 -29t18 -29q17 -34 2 -67q-16 -21 -27 -23q-6 0 -12 5t-8 10
q-1 2 -2.5 9.5t-2.5 10.5t-3 10t-4 10.5t-5 8.5t-7 9t-9 7q-74 -107 -185 -297q47 12 122.5 57.5t111.5 57.5q-2 -45 -57 -88q-89 -62 -187 -90q-42 -14 -55 -47q-10 -16 -36 -64.5t-44 -75.5q-73 -123 -85 -112q-12 13 41 136q39 91 73 140zM369 971q-60 -19 -64 -21
q-134 -65 -199 -196q-13 -39 -18 -76q-9 -30 27 -41q21 -8 34 -2.5t31 29.5q4 8 152 245q5 8 37 62z" />
    <glyph glyph-name="sterling" unicode="&#xa3;" horiz-adv-x="1050" 
d="M401 778q-63 0 -73 2q-22 0 -39 11q-5 3 -8 11.5t0 14.5q0 4 7 12t13 11q14 4 43 4h90q11 17 21 38t15.5 35.5t15 40t14.5 37.5q15 34 46 114.5t50 123.5q47 109 139 192q47 38 68 45q38 19 64.5 7t37.5 -52q16 -74 -20 -145q-19 -38 -74 -106q-8 -16 -21 -23t-26 4
q-13 15 12 49l45 60q29 56 29 98q6 77 -59 33q-51 -36 -115 -135q-14 -22 -28 -50.5t-21.5 -47t-21.5 -57t-19 -50.5l-70 -201h131q23 0 71 4t70 4q40 0 62 -10q18 -6 18 -21t-20 -24q-35 -21 -62 -21q-85 -4 -270 -8q-45 0 -65 -39q-71 -126 -201 -233q-2 -3 -29 -23
q2 -2 2 -8q10 -2 31 -2q171 22 303 -33q133 -44 281 58q78 61 84 35q5 -22 -33 -67q-12 -15 -25 -26q-146 -117 -305 -75q-9 1 -121 30q-155 31 -387 -49q-36 -10 -141 -55l-43 -17q-34 -4 -43 21q-3 13 4.5 29.5t21.5 25.5q8 5 26 13.5t26 13.5q111 47 143 65
q211 119 334 306q3 2 5.5 5.5t7 11t9.5 13.5z" />
    <glyph glyph-name="currency" unicode="&#xa4;" horiz-adv-x="763" 
d="M442 664l-20 -17q3 -3 35 -38t49 -52l24 -35q2 -4 1 -13t-5 -13q-10 -4 -28 0q-1 0 -13 6q-76 72 -100 123q-45 -16 -77.5 -24t-75.5 -6.5t-82 17.5l-62 -67q-32 -36 -51 -17q-16 16 12 52q6 7 26 27.5t29 31.5q-12 41 -15 62t8 48.5t30.5 51.5t65.5 73q-12 8 -35 26
t-35 26q-2 3 -7.5 5.5t-6.5 4.5q-13 10 -17 23t2 20q16 16 41 0q37 -22 90 -59q20 -15 43 -2q41 14 68 26q86 36 162 -51l12 -12q2 0 6 -2q18 15 50 47t50 47q19 19 33 26q11 8 23 0q9 -13 6 -22q-12 -28 -25 -41q-9 -10 -50.5 -52t-61.5 -65q-17 -17 -19 -28
q-10 -67 -80 -127zM152 694q4 -1 14.5 -2t15.5 -2.5t10 -7.5t5 -18q0 -3 10.5 -7t19.5 -4q108 -3 185 62q26 23 43 57q27 43 -6 88q-30 39 -74 31q-123 -23 -207 -127q-29 -36 -16 -70z" />
    <glyph glyph-name="yen" unicode="&#xa5;" horiz-adv-x="831" 
d="M379 860q11 14 40 52t46 57q60 74 172 198q7 8 17 16t22.5 17t19.5 14q14 10 23 13q31 5 41 -10q8 -19 -19 -37q-18 -14 -36 -29.5t-32 -28t-32.5 -33.5t-28.5 -31.5t-30 -36t-26 -33t-28 -37t-25 -34t-27 -38t-25 -35.5q-4 -2 -7 -15q6 0 17 -1t16 -1q29 -2 85.5 -4
t84.5 -4q43 -3 55 -27q10 -19 -16 -26q-14 -4 -35 -2q-12 0 -68.5 4.5t-86.5 3.5q-17 -1 -39 -1.5t-28 0t-18 -2.5t-13.5 -4.5t-10 -9.5t-11 -14.5t-13 -23.5t-19.5 -32q-3 -4 -8.5 -17t-9.5 -20h82q25 0 78.5 1t80.5 1q69 0 73 -22q3 -14 -25 -26q-23 -9 -56 -11l-242 -8
q-33 0 -45 -31q-15 -31 -48 -100.5t-52 -106.5q-17 -35 -63 -113q-21 66 24 177q13 31 41 90.5t35 74.5l-98 -12h-48q-4 0 -10 5.5t-6 8.5q0 19 8 23q24 15 47 18q102 16 115 17q31 3 39 24q10 18 29.5 51t29.5 52q-72 -7 -96 -12q-24 -4 -79 -14.5t-85 -14.5
q-1 0 -9.5 -2.5t-12 -3t-9.5 -0.5t-9 3.5t-5 10.5q-5 28 31 33q57 17 166 41q26 5 75.5 11t67.5 9l-69 86q-38 48 -105.5 137.5t-89.5 118.5q-12 14 -16 43q-3 17 12 29q6 4 27 -6q3 -1 20 -23l180 -233q8 -12 22.5 -37t22.5 -37q3 -7 12.5 -20.5t12.5 -18.5z" />
    <glyph glyph-name="plusminus" unicode="&#xb1;" horiz-adv-x="522" 
d="M319 889q23 -7 45 -3t47.5 1.5t39.5 -19.5q-4 -6 -8 -10.5t-9 -7.5t-8 -5t-10 -3.5t-9 -2t-9.5 -1t-8.5 -0.5q-46 -4 -70 -4q-34 0 -47 -29l-73 -133q-11 -21 -21.5 -31.5t-32.5 -22.5q-16 14 2 54l70 129q4 12 10 24l-108 -12q-4 0 -11.5 -0.5t-14 -0.5t-11.5 1
t-11.5 10.5t-7.5 10.5q17 17 21 18l94 18q24 4 41 4q46 -3 66 46q16 32 49 75q3 7 11 14t13 5q24 -5 11 -31q-18 -31 -23 -45q-3 -6 -13 -22.5t-14 -26.5zM322 535l-265 -9q-10 0 -30.5 -1t-30.5 -1q-19 0 -27 4q-12 8 -8 21q0 8 8 20q3 1 11.5 2t11.5 2q56 2 334 17
q45 4 50 -18q4 -18 -25 -30q-13 -6 -29 -7z" />
    <glyph glyph-name="multiply" unicode="&#xd7;" horiz-adv-x="589" 
d="M381 639q-39 5 -88 43t-64 45l-112 -84q-7 -3 -18.5 -11t-18.5 -11q-18 -5 -25 6q-4 4 -4.5 13t2.5 13q8 16 29 33q86 66 102 78q-8 8 -24 21t-23 20q-1 1 -7.5 5.5t-8 6.5t-4.5 6.5t-2 9t4 9.5q15 19 45 -2l69 -41q8 4 40 24t55 28t51 7q-6 -16 -18 -31t-20.5 -22.5
t-28 -22.5t-25.5 -20q10 -14 36.5 -32.5t42.5 -39t15 -51.5z" />
    <glyph glyph-name="divide" unicode="&#xf7;" horiz-adv-x="630" 
d="M422 797v2q34 -4 55 -13q19 -1 14 -18q-7 -20 -35 -24q-6 -1 -12 -1q-240 5 -288 7q-26 0 -50 6q-14 9 -14 20q6 17 12 19q15 6 33 6q22 -1 46 -1t53 0.5t45 0.5q45 -4 141 -4zM289 647q1 -1 3.5 -4.5t4.5 -7t2 -6.5q0 -14 -11 -24t-24 -9q-25 6 -20 25q0 12 13 19.5
t32 6.5zM299 874q-3 -2 -8.5 6.5t-5.5 14.5q0 9 7 15t17 3q27 -8 19 -22.5t-29 -16.5z" />
    <glyph glyph-name="quoteleft" unicode="&#x2018;" horiz-adv-x="401" 
d="M334 1434l55 -107q11 -27 -4 -45q-16 -16 -35 10q-42 79 -63 131q-8 19 11.5 28.5t29.5 -11.5z" />
    <glyph glyph-name="quoteright" unicode="&#x2019;" horiz-adv-x="401" 
d="M291 1327l55 107l6 6q10 21 29.5 11.5t11.5 -28.5q-21 -52 -63 -131q-19 -27 -34 -11q-16 18 -5 46z" />
    <glyph glyph-name="quotedblleft" unicode="&#x201c;" 
d="M434 1434l55 -107q11 -28 -4 -45q-15 -18 -34 10q-46 86 -64 131q-8 19 11.5 28.5t29.5 -11.5zM334 1434l55 -107q11 -27 -4 -45q-16 -16 -35 10q-42 79 -63 131q-8 19 11.5 28.5t29.5 -11.5z" />
    <glyph glyph-name="quotedblright" unicode="&#x201d;" 
d="M291 1327l55 107l6 6q10 21 29.5 11.5t11.5 -28.5q-21 -52 -63 -131q-19 -27 -34 -11q-16 18 -5 46zM391 1327l55 107l7 6q10 21 29.5 11.5t11.5 -28.5q-18 -45 -64 -131q-19 -27 -34 -11q-16 18 -5 46z" />
    <glyph glyph-name="Euro" unicode="&#x20ac;" horiz-adv-x="1003" 
d="M866 1071q3 33 -22 55q-66 60 -170 37q-79 -22 -152 -65q-100 -62 -198 -164q5 -1 13.5 -2.5t12.5 -1.5q198 12 283 16q49 3 67 -12q16 -15 -32 -33q-8 -3 -17 -6q-13 -3 -51 -8q-39 -3 -115.5 -6.5t-115.5 -6.5q-7 0 -24.5 -1.5t-25.5 -0.5q-29 4 -49 -9.5t-39 -43.5
l-43 -71l129 8l310 14q87 -11 65 -28q-26 -22 -151 -37l-35 -3q-56 -2 -166 -8t-162 -8l-22 -6q-67 -170 -23 -270q25 -51 98 -54q57 0 160 31q125 41 244 111q72 43 116 49q20 3 15 -8q-7 -18 -76 -64q-229 -149 -438 -174q-185 -21 -197 152q-11 73 23 176l14 49h-39
q-5 0 -14 -0.5t-16 -0.5t-11 1q-7 2 -12.5 8t-3.5 12q5 21 22 27q9 5 48 10q9 2 18 3t20 1.5t17 1.5q17 28 72 119h-93q-35 0 -47 2q-18 0 -18 14q1 17 21 26l3 1q4 3 31 8l105 11q52 0 88 41q103 118 245 198q80 47 164 62q126 21 199 -58q34 -37 20 -82q-9 -36 -29 -46
q-14 -8 -16 16q-1 7 0 18z" />
  </font>
</defs>
</svg>
