<svg width="200" height="48" viewBox="0 0 200 48" fill="none" xmlns="http://www.w3.org/2000/svg">
<rect width="200" height="48" fill="white"/>
<g clip-path="url(#clip0_4437_18793)">
<path fill-rule="evenodd" clip-rule="evenodd" d="M24 4C12.9543 4 4 12.9543 4 24C4 35.0457 12.9543 44 24 44C35.0457 44 44 35.0457 44 24C44 12.9543 35.0457 4 24 4ZM0 24C0 10.7452 10.7452 0 24 0C37.2548 0 48 10.7452 48 24C48 37.2548 37.2548 48 24 48C10.7452 48 0 37.2548 0 24Z" fill="black"/>
<path fill-rule="evenodd" clip-rule="evenodd" d="M19.1833 45.4721C18.9898 45.2224 18.9898 42.9978 19.1833 38.7985C17.1114 38.8701 15.8024 38.7263 15.2563 38.3672C14.437 37.8285 13.6169 36.1672 12.8891 34.9964C12.1614 33.8256 10.5463 33.6405 9.89405 33.3787C9.24182 33.117 9.07809 32.0501 11.6913 32.857C14.3044 33.6639 14.4319 35.8611 15.2563 36.375C16.0806 36.8888 18.0515 36.664 18.9448 36.2524C19.8382 35.8408 19.7724 34.3083 19.9317 33.7012C20.1331 33.1345 19.4233 33.0088 19.4077 33.0042C18.5355 33.0042 13.9539 32.0078 12.6955 27.5711C11.437 23.1345 13.0581 20.2346 13.9229 18.988C14.4995 18.1569 14.4485 16.3857 13.7699 13.6742C16.2335 13.3594 18.1347 14.1348 19.4734 16.0006C19.4747 16.0113 21.2285 14.9577 24.0003 14.9577C26.772 14.9577 27.7553 15.8159 28.5142 16.0006C29.2731 16.1853 29.88 12.7345 34.5668 13.6742C33.5883 15.5974 32.7689 18.0006 33.3943 18.988C34.0198 19.9754 36.4745 23.1152 34.9666 27.5711C33.9614 30.5418 31.9853 32.3528 29.0384 33.0042C28.7005 33.112 28.5315 33.2859 28.5315 33.526C28.5315 33.8861 28.9884 33.9254 29.6465 35.6122C30.0853 36.7367 30.117 39.9485 29.7416 45.2475C28.7906 45.4895 28.0508 45.6521 27.5221 45.7352C26.5847 45.8825 25.5669 45.9651 24.5669 45.997C23.5669 46.0289 23.2196 46.0253 21.837 45.8966C20.9154 45.8108 20.0308 45.6693 19.1833 45.4721Z" fill="black"/>
</g>
<path d="M93 16V42H55V16V16" stroke="black" stroke-width="4" stroke-linecap="round" stroke-linejoin="round"/>
<path d="M55 4H93V16H55V4Z" stroke="black" stroke-width="4" stroke-linejoin="round"/>
<path fill-rule="evenodd" clip-rule="evenodd" d="M61 12C62.1046 12 63 11.1046 63 10C63 8.89543 62.1046 8 61 8C59.8954 8 59 8.89543 59 10C59 11.1046 59.8954 12 61 12Z" fill="black"/>
<path fill-rule="evenodd" clip-rule="evenodd" d="M67 12C68.1046 12 69 11.1046 69 10C69 8.89543 68.1046 8 67 8C65.8954 8 65 8.89543 65 10C65 11.1046 65.8954 12 67 12Z" fill="black"/>
<path fill-rule="evenodd" clip-rule="evenodd" d="M73 12C74.1046 12 75 11.1046 75 10C75 8.89543 74.1046 8 73 8C71.8954 8 71 8.89543 71 10C71 11.1046 71.8954 12 73 12Z" fill="black"/>
<path d="M116.996 7.68583C117.723 7.68583 118.392 8.07985 118.745 8.71509L121.191 13.1219C121.511 13.6989 121.527 14.3968 121.231 14.9871L118.875 19.7008C118.875 19.7008 119.558 23.2122 122.416 26.0706C125.274 28.929 128.774 29.6002 128.774 29.6002L133.487 27.2438C134.078 26.9484 134.776 26.9637 135.353 27.2846L139.773 29.7416C140.407 30.0945 140.801 30.7635 140.801 31.4896L140.801 36.5631C140.801 39.1468 138.401 41.0129 135.953 40.1868C130.925 38.4903 123.12 35.2601 118.173 30.3132C113.227 25.3664 109.996 17.5617 108.3 12.5338C107.474 10.0857 109.34 7.68583 111.923 7.68583L116.996 7.68583Z" stroke="black" stroke-width="4" stroke-linejoin="round"/>
<path d="M154 39H194V24V9H174H154V24V39Z" stroke="black" stroke-width="4" stroke-linejoin="round"/>
<path d="M154 9L174 24L194 9" stroke="black" stroke-width="4" stroke-linecap="round" stroke-linejoin="round"/>
<path d="M174 9H154V24" stroke="black" stroke-width="4" stroke-linecap="round" stroke-linejoin="round"/>
<path d="M194 24V9H174" stroke="black" stroke-width="4" stroke-linecap="round" stroke-linejoin="round"/>
<defs>
<clipPath id="clip0_4437_18793">
<rect width="48" height="48" fill="white"/>
</clipPath>
</defs>
</svg>
